<?xml version="1.0" encoding="UTF-8"?>
<!DOCTYPE svg PUBLIC "-//W3C//DTD SVG 1.1//EN" "http://www.w3.org/Graphics/SVG/1.1/DTD/svg11.dtd">
<svg xmlns="http://www.w3.org/2000/svg" version="1.1" width="980px" height="1021px" style="shape-rendering:geometricPrecision; text-rendering:geometricPrecision; image-rendering:optimizeQuality; fill-rule:evenodd; clip-rule:evenodd" xmlns:xlink="http://www.w3.org/1999/xlink">
<g><path style="opacity:1" fill="#fefefe" d="M -0.5,-0.5 C 326.167,-0.5 652.833,-0.5 979.5,-0.5C 979.5,339.833 979.5,680.167 979.5,1020.5C 652.833,1020.5 326.167,1020.5 -0.5,1020.5C -0.5,680.167 -0.5,339.833 -0.5,-0.5 Z"/></g>
<g><path style="opacity:1" fill="#575b97" d="M 595.5,239.5 C 590.786,239.827 586.12,239.493 581.5,238.5C 576.357,236.34 571.023,235.006 565.5,234.5C 558.411,232.696 551.077,231.696 543.5,231.5C 514.217,228.498 484.884,229.331 455.5,234C 454.584,234.278 453.918,234.778 453.5,235.5C 447.588,235.511 441.922,236.677 436.5,239C 432.179,239.499 427.846,239.666 423.5,239.5C 451.706,232.012 480.539,228.345 510,228.5C 539.28,227.546 567.78,231.213 595.5,239.5 Z"/></g>
<g><path style="opacity:1" fill="#464fb3" d="M 543.5,231.5 C 551.077,231.696 558.411,232.696 565.5,234.5C 563.5,234.5 561.5,234.5 559.5,234.5C 559.5,235.5 559.5,236.5 559.5,237.5C 562.898,237.18 566.232,237.513 569.5,238.5C 560.003,239.147 550.503,238.814 541,237.5C 520.532,237.689 500.032,237.689 479.5,237.5C 479.5,236.167 479.5,234.833 479.5,233.5C 470.827,234.128 462.161,234.794 453.5,235.5C 453.918,234.778 454.584,234.278 455.5,234C 484.884,229.331 514.217,228.498 543.5,231.5 Z"/></g>
<g><path style="opacity:1" fill="#454cc6" d="M 543.5,231.5 C 546.308,232.114 548.975,233.281 551.5,235C 547.5,235.167 543.5,235.333 539.5,235.5C 521.451,235.14 503.451,234.306 485.5,233C 504.765,231.537 524.099,231.037 543.5,231.5 Z"/></g>
<g><path style="opacity:1" fill="#424ebd" d="M 565.5,234.5 C 571.023,235.006 576.357,236.34 581.5,238.5C 586.12,239.493 590.786,239.827 595.5,239.5C 596.5,239.5 597.5,239.5 598.5,239.5C 598.414,240.496 598.748,241.329 599.5,242C 602.063,243.079 604.729,243.579 607.5,243.5C 607.5,244.5 607.5,245.5 607.5,246.5C 618.085,248.426 628.418,251.092 638.5,254.5C 641.48,255.323 644.147,256.657 646.5,258.5C 652.973,262.772 659.64,266.939 666.5,271C 668.134,271.494 669.801,271.66 671.5,271.5C 675.221,273.354 678.554,275.687 681.5,278.5C 681.511,280.017 682.177,281.184 683.5,282C 688.659,283.567 692.659,286.567 695.5,291C 693.796,293.237 692.796,295.737 692.5,298.5C 693.5,298.5 694.5,298.5 695.5,298.5C 695.286,296.856 695.62,295.356 696.5,294C 698.473,293.505 700.473,293.338 702.5,293.5C 703.167,293.5 703.5,293.833 703.5,294.5C 703.5,295.5 703.5,296.5 703.5,297.5C 707.962,299.92 711.962,303.087 715.5,307C 716.793,307.49 718.127,307.657 719.5,307.5C 721.787,310.306 723.954,313.306 726,316.5C 727.609,317.147 729.109,317.98 730.5,319C 729.742,320.364 730.242,321.531 732,322.5C 732.494,324.134 732.66,325.801 732.5,327.5C 727.333,328.508 725.666,326.675 727.5,322C 725.875,321.147 725.542,320.147 726.5,319C 725.095,317.731 723.429,317.231 721.5,317.5C 721.853,319.635 721.02,320.968 719,321.5C 716.453,319.823 713.62,319.156 710.5,319.5C 710.854,317.459 710.854,315.626 710.5,314C 706.209,314.208 702.542,312.875 699.5,310C 694.833,309.333 690.167,308.667 685.5,308C 685.043,307.586 684.709,307.086 684.5,306.5C 686.624,305.851 688.624,305.017 690.5,304C 684.175,303.5 677.842,303.334 671.5,303.5C 670.666,302.252 669.333,301.585 667.5,301.5C 663.524,300.836 659.524,300.503 655.5,300.5C 655.38,299.414 654.713,298.747 653.5,298.5C 648.728,297.332 644.062,296.332 639.5,295.5C 634.303,294.395 628.97,293.395 623.5,292.5C 623.5,291.5 623.5,290.5 623.5,289.5C 618.167,289.5 612.833,289.5 607.5,289.5C 596.833,289.5 586.167,289.5 575.5,289.5C 575.5,290.5 575.5,291.5 575.5,292.5C 569.729,291.887 564.396,292.554 559.5,294.5C 559.5,295.167 559.5,295.833 559.5,296.5C 557.5,296.5 555.5,296.5 553.5,296.5C 548.156,296.334 542.823,296.501 537.5,297C 533.726,297.568 530.393,298.735 527.5,300.5C 523.132,300.37 518.798,300.703 514.5,301.5C 512.97,301.64 511.97,302.307 511.5,303.5C 510.5,303.5 509.5,303.5 508.5,303.5C 501.719,303.402 495.053,304.235 488.5,306C 487.058,306.377 486.058,307.21 485.5,308.5C 481.99,308.668 478.49,309.001 475,309.5C 471.482,308.267 467.815,307.267 464,306.5C 462.167,306.833 460.333,307.167 458.5,307.5C 461.167,308.833 463.833,310.167 466.5,311.5C 461.518,312.581 456.518,313.581 451.5,314.5C 450.233,316.317 448.9,317.984 447.5,319.5C 446.833,319.5 446.167,319.5 445.5,319.5C 440.601,319.559 435.934,320.559 431.5,322.5C 431.5,323.5 431.5,324.5 431.5,325.5C 426.554,325.31 422.22,326.81 418.5,330C 415.576,330.988 412.576,331.654 409.5,332C 408.663,333.011 408.33,334.178 408.5,335.5C 403.251,334.445 400.251,336.445 399.5,341.5C 399.167,341.5 398.833,341.5 398.5,341.5C 393.303,342.638 388.303,344.304 383.5,346.5C 383.5,348.167 383.5,349.833 383.5,351.5C 383.167,351.5 382.833,351.5 382.5,351.5C 377.956,352.828 373.956,355.328 370.5,359C 369.552,359.483 368.552,359.649 367.5,359.5C 366.956,361.716 365.956,363.716 364.5,365.5C 360.859,368.805 357.192,372.138 353.5,375.5C 349.442,375.72 346.608,377.72 345,381.5C 344.676,379.431 343.842,379.098 342.5,380.5C 341.359,378.579 341.192,376.579 342,374.5C 343.366,372.63 344.533,370.63 345.5,368.5C 343.257,367.526 340.924,367.192 338.5,367.5C 338.715,371.501 338.048,375.335 336.5,379C 336.982,381.784 338.315,383.951 340.5,385.5C 337.887,388.73 335.387,392.064 333,395.5C 332.51,396.793 332.343,398.127 332.5,399.5C 330.5,399.5 328.5,399.5 326.5,399.5C 326.906,395.729 327.739,392.062 329,388.5C 338.966,384.922 338.466,383.255 327.5,383.5C 328.077,386.55 326.91,388.55 324,389.5C 323.265,393.813 322.765,398.147 322.5,402.5C 323.5,402.5 324.5,402.5 325.5,402.5C 325.5,404.5 325.5,406.5 325.5,408.5C 324.178,408.33 323.011,408.663 322,409.5C 321.333,408.167 320.667,406.833 320,405.5C 320.314,409.21 320.147,412.876 319.5,416.5C 319.167,416.833 318.833,417.167 318.5,417.5C 317.476,416.147 316.143,415.48 314.5,415.5C 314.827,417.488 315.16,419.488 315.5,421.5C 314.784,425.422 314.117,425.422 313.5,421.5C 312.5,421.5 311.5,421.5 310.5,421.5C 310.156,424.62 310.823,427.453 312.5,430C 311.655,433.549 310.155,434.049 308,431.5C 307.502,434.482 307.335,437.482 307.5,440.5C 305.876,440.64 304.71,439.973 304,438.5C 304.152,441.447 304.319,444.447 304.5,447.5C 303.532,449.607 303.198,451.941 303.5,454.5C 300.262,456.513 298.929,459.513 299.5,463.5C 297.833,463.5 296.167,463.5 294.5,463.5C 295.098,468.813 295.431,474.146 295.5,479.5C 293.435,487.158 291.769,495.158 290.5,503.5C 288.378,499.554 288.045,495.387 289.5,491C 288.809,489.933 288.309,488.766 288,487.5C 287.833,491.5 287.667,495.5 287.5,499.5C 288.299,526.438 288.466,553.438 288,580.5C 289,579.167 290,577.833 291,576.5C 292.156,580.123 293.156,583.789 294,587.5C 294.74,589.319 295.907,590.652 297.5,591.5C 298.167,591.5 298.833,591.5 299.5,591.5C 299.421,594.271 299.921,596.937 301,599.5C 303.93,603.976 307.096,608.309 310.5,612.5C 311.429,613.689 311.762,615.022 311.5,616.5C 314.167,617.833 316.833,619.167 319.5,620.5C 319.5,620.833 319.5,621.167 319.5,621.5C 319.34,623.199 319.506,624.866 320,626.5C 320.974,624.122 321.641,624.456 322,627.5C 326.5,629.333 329.667,632.5 331.5,637C 334.376,637.438 337.043,638.438 339.5,640C 342.508,644.004 346.508,646.171 351.5,646.5C 358.137,651.05 365.47,654.05 373.5,655.5C 374.609,655.557 375.609,655.89 376.5,656.5C 376.369,657.376 376.702,658.043 377.5,658.5C 384.601,661.238 391.934,662.905 399.5,663.5C 402.469,665.307 405.802,666.807 409.5,668C 417.011,668.171 424.345,668.671 431.5,669.5C 438.264,671.035 445.264,671.702 452.5,671.5C 457.5,671.333 462.5,671.167 467.5,671C 469.058,670.79 470.391,670.29 471.5,669.5C 474.167,668.833 476.833,668.167 479.5,667.5C 484.861,666.294 490.194,664.961 495.5,663.5C 503.337,662.955 511.004,661.622 518.5,659.5C 518.5,658.167 518.5,656.833 518.5,655.5C 518.833,655.5 519.167,655.5 519.5,655.5C 526.471,652.875 532.471,648.708 537.5,643C 540.908,640.94 544.074,638.44 547,635.5C 546.5,631.18 548.333,628.846 552.5,628.5C 556.106,619.425 559.106,610.092 561.5,600.5C 562.662,582.338 562.829,564.005 562,545.5C 561.583,544.244 560.75,543.577 559.5,543.5C 559.186,537.537 557.186,532.204 553.5,527.5C 554.5,527.5 555.5,527.5 556.5,527.5C 556.5,525.833 556.5,524.167 556.5,522.5C 557.5,522.5 558.5,522.5 559.5,522.5C 559.576,514.994 558.243,514.661 555.5,521.5C 552.137,520.137 549.803,517.803 548.5,514.5C 548.608,513.558 548.941,512.725 549.5,512C 552.833,511.667 556.167,511.333 559.5,511C 554.22,509.905 548.887,509.405 543.5,509.5C 543.5,508.167 543.5,506.833 543.5,505.5C 548.833,505.5 554.167,505.5 559.5,505.5C 559.719,504.325 559.386,503.325 558.5,502.5C 555.891,501.77 553.224,501.27 550.5,501C 561.45,500.203 572.45,499.037 583.5,497.5C 590.364,497.083 596.697,498.583 602.5,502C 602.957,502.414 603.291,502.914 603.5,503.5C 599.555,504.491 595.555,504.824 591.5,504.5C 591.5,505.833 591.5,507.167 591.5,508.5C 596.822,508.98 602.155,509.313 607.5,509.5C 607.187,512.247 607.52,514.914 608.5,517.5C 609.72,517.113 610.387,516.28 610.5,515C 609.305,513.467 609.305,511.967 610.5,510.5C 608.022,509.278 607.022,507.278 607.5,504.5C 612.185,505.686 615.018,508.686 616,513.5C 617.848,516.041 620.348,517.041 623.5,516.5C 623.5,516.833 623.5,517.167 623.5,517.5C 625.702,523.416 627.869,529.416 630,535.5C 630.5,548.829 630.667,562.163 630.5,575.5C 629.833,580.833 629.167,586.167 628.5,591.5C 627.669,603.993 627.169,616.66 627,629.5C 625.956,631.715 625.29,634.048 625,636.5C 624.667,635.833 624.333,635.167 624,634.5C 623.833,636 623.667,637.5 623.5,639C 625.892,645.7 626.059,652.534 624,659.5C 618.078,661.368 615.911,665.368 617.5,671.5C 618.5,671.5 619.5,671.5 620.5,671.5C 620.5,672.5 620.5,673.5 620.5,674.5C 618.026,676.898 616.692,679.898 616.5,683.5C 615.167,683.5 613.833,683.5 612.5,683.5C 612.785,681.712 612.452,680.045 611.5,678.5C 610.713,682.145 610.546,685.812 611,689.5C 608.952,693.073 606.619,696.406 604,699.5C 603.51,700.793 603.343,702.127 603.5,703.5C 602.448,703.351 601.448,703.517 600.5,704C 596.994,707.819 593.994,711.319 591.5,714.5C 586.684,714.4 584.351,716.733 584.5,721.5C 583.167,721.5 581.833,721.5 580.5,721.5C 580.838,717.849 579.172,716.183 575.5,716.5C 575.5,717.5 575.5,718.5 575.5,719.5C 573.5,719.5 571.5,719.5 569.5,719.5C 569.321,721.954 569.987,724.121 571.5,726C 568.137,729.181 564.137,731.014 559.5,731.5C 559.5,732.833 559.5,734.167 559.5,735.5C 557.09,736.383 554.757,737.55 552.5,739C 543.552,740.871 535.219,743.704 527.5,747.5C 524.102,747.18 520.768,747.513 517.5,748.5C 515.025,748.964 513.025,749.964 511.5,751.5C 500.84,751.836 490.174,752.169 479.5,752.5C 481.423,753.308 483.423,753.808 485.5,754C 485.167,754.333 484.833,754.667 484.5,755C 480.312,755.176 476.312,755.676 472.5,756.5C 459.103,759.937 445.436,761.603 431.5,761.5C 411.494,761.447 391.494,761.114 371.5,760.5C 369.901,760.768 368.568,760.434 367.5,759.5C 355.291,757.53 342.958,755.53 330.5,753.5C 330.167,753.5 329.833,753.5 329.5,753.5C 328.71,752.206 327.71,751.039 326.5,750C 321.57,748.759 316.57,747.925 311.5,747.5C 309.916,745.242 307.916,743.408 305.5,742C 305.905,741.055 306.572,740.388 307.5,740C 305.581,738.066 304.081,738.233 303,740.5C 299.621,738.542 296.121,736.876 292.5,735.5C 286.43,734.137 280.764,731.637 275.5,728C 274.207,727.51 272.873,727.343 271.5,727.5C 270.719,723.626 268.385,721.459 264.5,721C 263.833,719.667 263.167,718.333 262.5,717C 255.431,714.08 249.764,709.58 245.5,703.5C 247.164,701.321 246.83,699.488 244.5,698C 240.966,697.336 238.299,695.503 236.5,692.5C 234.929,691.691 233.262,691.357 231.5,691.5C 230.026,690.564 229.026,689.23 228.5,687.5C 228.702,685.011 228.202,682.677 227,680.5C 225.989,679.663 224.822,679.33 223.5,679.5C 221.347,674.981 219.18,670.315 217,665.5C 213.865,663.199 211.698,660.199 210.5,656.5C 209.675,655.614 208.675,655.281 207.5,655.5C 207.5,655.167 207.5,654.833 207.5,654.5C 207.66,652.801 207.494,651.134 207,649.5C 205.031,645.856 202.864,642.523 200.5,639.5C 200.82,636.102 200.487,632.768 199.5,629.5C 198.098,629.135 197.098,628.301 196.5,627C 195.796,623.872 195.296,620.706 195,617.5C 193.887,616.695 192.721,616.028 191.5,615.5C 191.5,614.5 191.5,613.5 191.5,612.5C 191.665,609.15 191.498,605.817 191,602.5C 189.26,601.284 188.26,599.618 188,597.5C 187.667,592.833 187.333,588.167 187,583.5C 186.764,581.881 185.931,580.881 184.5,580.5C 184.82,573.262 184.153,566.262 182.5,559.5C 182.584,542.161 182.917,524.827 183.5,507.5C 183.5,506.167 183.5,504.833 183.5,503.5C 183.833,503.5 184.167,503.5 184.5,503.5C 187.568,492.501 189.901,481.167 191.5,469.5C 191.5,468.833 191.5,468.167 191.5,467.5C 192.222,467.082 192.722,466.416 193,465.5C 193.317,467.301 193.984,467.634 195,466.5C 195.44,460.67 196.274,455.004 197.5,449.5C 197.5,448.833 197.5,448.167 197.5,447.5C 198.833,447.5 200.167,447.5 201.5,447.5C 203.598,440.686 205.598,433.686 207.5,426.5C 208.699,425.425 209.866,424.425 211,423.5C 212.036,420.247 212.703,416.914 213,413.5C 215.092,411.229 216.426,408.563 217,405.5C 218.333,404.833 219.667,404.167 221,403.5C 224.398,395.933 227.564,388.267 230.5,380.5C 233.759,376.091 237.926,372.424 243,369.5C 243.441,366.061 245.108,363.394 248,361.5C 248.862,359.913 249.529,358.246 250,356.5C 251.399,355.773 252.899,355.273 254.5,355C 255.337,353.989 255.67,352.822 255.5,351.5C 258.167,350.5 260.833,349.5 263.5,348.5C 263.5,349.5 263.5,350.5 263.5,351.5C 267.691,352.131 269.525,350.465 269,346.5C 264.942,345.536 264.442,343.536 267.5,340.5C 268.748,341.04 269.915,341.707 271,342.5C 271.497,340.19 271.663,337.857 271.5,335.5C 277.22,336.264 277.887,334.93 273.5,331.5C 275.068,327.681 277.568,324.681 281,322.5C 281.483,321.552 281.649,320.552 281.5,319.5C 281.833,319.5 282.167,319.5 282.5,319.5C 283.978,319.762 285.311,319.429 286.5,318.5C 291.449,314.889 296.116,310.889 300.5,306.5C 302.25,305.341 303.25,303.674 303.5,301.5C 304.552,301.649 305.552,301.483 306.5,301C 308.714,297.893 311.714,296.393 315.5,296.5C 315.961,293.697 317.295,291.363 319.5,289.5C 322.753,288.468 325.919,287.135 329,285.5C 333.508,282.879 337.675,279.713 341.5,276C 343.087,275.138 344.754,274.471 346.5,274C 347.252,273.329 347.586,272.496 347.5,271.5C 349.483,271.843 350.817,271.176 351.5,269.5C 354.817,269.336 357.817,268.336 360.5,266.5C 365.452,264.08 370.785,262.247 376.5,261C 379.186,259.424 381.52,257.591 383.5,255.5C 387.937,252.533 392.77,250.2 398,248.5C 399.03,248.164 399.53,247.497 399.5,246.5C 403.475,246.514 406.808,245.181 409.5,242.5C 414.114,243.232 418.114,242.232 421.5,239.5C 422.167,239.5 422.833,239.5 423.5,239.5C 427.846,239.666 432.179,239.499 436.5,239C 441.922,236.677 447.588,235.511 453.5,235.5C 462.161,234.794 470.827,234.128 479.5,233.5C 479.5,234.833 479.5,236.167 479.5,237.5C 500.032,237.689 520.532,237.689 541,237.5C 550.503,238.814 560.003,239.147 569.5,238.5C 566.232,237.513 562.898,237.18 559.5,237.5C 559.5,236.5 559.5,235.5 559.5,234.5C 561.5,234.5 563.5,234.5 565.5,234.5 Z"/></g>
<g><path style="opacity:1" fill="#56629d" d="M 421.5,239.5 C 418.114,242.232 414.114,243.232 409.5,242.5C 413.404,241.508 417.404,240.508 421.5,239.5 Z"/></g>
<g><path style="opacity:1" fill="#555a93" d="M 409.5,242.5 C 406.808,245.181 403.475,246.514 399.5,246.5C 402.518,244.6 405.851,243.267 409.5,242.5 Z"/></g>
<g><path style="opacity:1" fill="#4f569e" d="M 598.5,239.5 C 612.192,243.728 625.525,248.728 638.5,254.5C 628.418,251.092 618.085,248.426 607.5,246.5C 607.5,245.5 607.5,244.5 607.5,243.5C 604.729,243.579 602.063,243.079 599.5,242C 598.748,241.329 598.414,240.496 598.5,239.5 Z"/></g>
<g><path style="opacity:1" fill="#5f6196" d="M 399.5,246.5 C 399.53,247.497 399.03,248.164 398,248.5C 392.77,250.2 387.937,252.533 383.5,255.5C 381.833,255.5 380.167,255.5 378.5,255.5C 385.094,251.707 392.094,248.707 399.5,246.5 Z"/></g>
<g><path style="opacity:1" fill="#4a4ea6" d="M 378.5,255.5 C 380.167,255.5 381.833,255.5 383.5,255.5C 381.52,257.591 379.186,259.424 376.5,261C 370.785,262.247 365.452,264.08 360.5,266.5C 362.139,265.527 363.473,264.194 364.5,262.5C 368.694,259.327 373.361,256.993 378.5,255.5 Z"/></g>
<g><path style="opacity:1" fill="#52588f" d="M 364.5,262.5 C 363.473,264.194 362.139,265.527 360.5,266.5C 357.817,268.336 354.817,269.336 351.5,269.5C 355.347,266.407 359.68,264.074 364.5,262.5 Z"/></g>
<g><path style="opacity:1" fill="#615e6f" d="M 351.5,269.5 C 350.817,271.176 349.483,271.843 347.5,271.5C 348.514,270.326 349.847,269.66 351.5,269.5 Z"/></g>
<g><path style="opacity:1" fill="#535b9b" d="M 646.5,258.5 C 655.27,262.051 663.604,266.385 671.5,271.5C 669.801,271.66 668.134,271.494 666.5,271C 659.64,266.939 652.973,262.772 646.5,258.5 Z"/></g>
<g><path style="opacity:1" fill="#5a5c97" d="M 347.5,271.5 C 347.586,272.496 347.252,273.329 346.5,274C 344.754,274.471 343.087,275.138 341.5,276C 337.675,279.713 333.508,282.879 329,285.5C 325.919,287.135 322.753,288.468 319.5,289.5C 328.146,282.506 337.479,276.506 347.5,271.5 Z"/></g>
<g><path style="opacity:1" fill="#444bcc" d="M 607.5,289.5 C 607.5,290.5 607.5,291.5 607.5,292.5C 596.833,292.5 586.167,292.5 575.5,292.5C 575.5,291.5 575.5,290.5 575.5,289.5C 586.167,289.5 596.833,289.5 607.5,289.5 Z"/></g>
<g><path style="opacity:1" fill="#454fab" d="M 607.5,289.5 C 612.833,289.5 618.167,289.5 623.5,289.5C 623.5,290.5 623.5,291.5 623.5,292.5C 628.97,293.395 634.303,294.395 639.5,295.5C 634.167,295.5 628.833,295.5 623.5,295.5C 618.167,295.167 612.833,294.833 607.5,294.5C 591.657,293.292 575.657,293.292 559.5,294.5C 564.396,292.554 569.729,291.887 575.5,292.5C 586.167,292.5 596.833,292.5 607.5,292.5C 607.5,291.5 607.5,290.5 607.5,289.5 Z"/></g>
<g><path style="opacity:1" fill="#4e5592" d="M 607.5,294.5 C 591.448,294.168 575.448,294.835 559.5,296.5C 559.5,295.833 559.5,295.167 559.5,294.5C 575.657,293.292 591.657,293.292 607.5,294.5 Z"/></g>
<g><path style="opacity:1" fill="#4f58a6" d="M 681.5,278.5 C 689.418,282.285 696.418,287.285 702.5,293.5C 700.473,293.338 698.473,293.505 696.5,294C 695.62,295.356 695.286,296.856 695.5,298.5C 694.5,298.5 693.5,298.5 692.5,298.5C 692.796,295.737 693.796,293.237 695.5,291C 692.659,286.567 688.659,283.567 683.5,282C 682.177,281.184 681.511,280.017 681.5,278.5 Z"/></g>
<g><path style="opacity:1" fill="#51569b" d="M 319.5,289.5 C 317.295,291.363 315.961,293.697 315.5,296.5C 311.714,296.393 308.714,297.893 306.5,301C 305.552,301.483 304.552,301.649 303.5,301.5C 308.545,297.122 313.878,293.122 319.5,289.5 Z"/></g>
<g><path style="opacity:1" fill="#616699" d="M 623.5,295.5 C 628.833,295.5 634.167,295.5 639.5,295.5C 644.062,296.332 648.728,297.332 653.5,298.5C 654.713,298.747 655.38,299.414 655.5,300.5C 644.745,298.565 634.078,296.898 623.5,295.5 Z"/></g>
<g><path style="opacity:1" fill="#585b9b" d="M 553.5,296.5 C 545.007,298.09 536.34,299.423 527.5,300.5C 530.393,298.735 533.726,297.568 537.5,297C 542.823,296.501 548.156,296.334 553.5,296.5 Z"/></g>
<g><path style="opacity:1" fill="#5f6198" d="M 655.5,300.5 C 659.524,300.503 663.524,300.836 667.5,301.5C 669.333,301.585 670.666,302.252 671.5,303.5C 671.5,303.833 671.5,304.167 671.5,304.5C 666.057,303.139 660.724,301.806 655.5,300.5 Z"/></g>
<g><path style="opacity:1" fill="#5b6193" d="M 527.5,300.5 C 522.288,301.492 516.954,302.492 511.5,303.5C 511.97,302.307 512.97,301.64 514.5,301.5C 518.798,300.703 523.132,300.37 527.5,300.5 Z"/></g>
<g><path style="opacity:1" fill="#505695" d="M 508.5,303.5 C 500.972,305.295 493.305,306.962 485.5,308.5C 486.058,307.21 487.058,306.377 488.5,306C 495.053,304.235 501.719,303.402 508.5,303.5 Z"/></g>
<g><path style="opacity:1" fill="#555aa0" d="M 703.5,294.5 C 708.602,297.755 713.602,301.255 718.5,305C 719.252,305.671 719.586,306.504 719.5,307.5C 718.127,307.657 716.793,307.49 715.5,307C 711.962,303.087 707.962,299.92 703.5,297.5C 703.5,296.5 703.5,295.5 703.5,294.5 Z"/></g>
<g><path style="opacity:1" fill="#5e6097" d="M 303.5,301.5 C 303.25,303.674 302.25,305.341 300.5,306.5C 296.869,307.608 293.869,309.774 291.5,313C 290.552,313.483 289.552,313.649 288.5,313.5C 292.898,308.771 297.898,304.771 303.5,301.5 Z"/></g>
<g><path style="opacity:1" fill="#4953aa" d="M 485.5,308.5 C 479.317,310.332 472.984,311.998 466.5,313.5C 462.466,313.672 458.466,314.172 454.5,315C 453.244,315.417 452.577,316.25 452.5,317.5C 451.07,318.537 449.403,319.204 447.5,319.5C 448.9,317.984 450.233,316.317 451.5,314.5C 456.518,313.581 461.518,312.581 466.5,311.5C 463.833,310.167 461.167,308.833 458.5,307.5C 460.333,307.167 462.167,306.833 464,306.5C 467.815,307.267 471.482,308.267 475,309.5C 478.49,309.001 481.99,308.668 485.5,308.5 Z"/></g>
<g><path style="opacity:1" fill="#565c8e" d="M 466.5,313.5 C 462.099,315.344 457.433,316.677 452.5,317.5C 452.577,316.25 453.244,315.417 454.5,315C 458.466,314.172 462.466,313.672 466.5,313.5 Z"/></g>
<g><path style="opacity:1" fill="#4f51a1" d="M 300.5,306.5 C 296.116,310.889 291.449,314.889 286.5,318.5C 285.311,319.429 283.978,319.762 282.5,319.5C 284.194,317.139 286.194,315.139 288.5,313.5C 289.552,313.649 290.552,313.483 291.5,313C 293.869,309.774 296.869,307.608 300.5,306.5 Z"/></g>
<g><path style="opacity:1" fill="#5f6198" d="M 697.5,313.5 C 700.647,313.737 703.647,314.57 706.5,316C 708.426,316.422 709.426,317.589 709.5,319.5C 705.155,317.994 701.155,315.994 697.5,313.5 Z"/></g>
<g><path style="opacity:1" fill="#50579c" d="M 445.5,319.5 C 440.987,321.677 436.32,323.677 431.5,325.5C 431.5,324.5 431.5,323.5 431.5,322.5C 435.934,320.559 440.601,319.559 445.5,319.5 Z"/></g>
<g><path style="opacity:1" fill="#585c8f" d="M 735.5,322.5 C 742.662,328.829 749.329,335.662 755.5,343C 751.314,341.656 747.314,339.823 743.5,337.5C 744.756,337.539 745.756,337.039 746.5,336C 742.55,331.568 738.883,327.068 735.5,322.5 Z"/></g>
<g><path style="opacity:1" fill="#6968a4" d="M 716.5,322.5 C 719.254,322.784 721.92,323.451 724.5,324.5C 725.127,325.417 725.461,326.417 725.5,327.5C 722.008,326.59 719.008,324.924 716.5,322.5 Z"/></g>
<g><path style="opacity:1" fill="#4f53ac" d="M 671.5,303.5 C 677.842,303.334 684.175,303.5 690.5,304C 688.624,305.017 686.624,305.851 684.5,306.5C 684.709,307.086 685.043,307.586 685.5,308C 690.167,308.667 694.833,309.333 699.5,310C 702.542,312.875 706.209,314.208 710.5,314C 710.854,315.626 710.854,317.459 710.5,319.5C 713.62,319.156 716.453,319.823 719,321.5C 721.02,320.968 721.853,319.635 721.5,317.5C 723.429,317.231 725.095,317.731 726.5,319C 725.542,320.147 725.875,321.147 727.5,322C 725.666,326.675 727.333,328.508 732.5,327.5C 732.66,325.801 732.494,324.134 732,322.5C 730.242,321.531 729.742,320.364 730.5,319C 729.109,317.98 727.609,317.147 726,316.5C 723.954,313.306 721.787,310.306 719.5,307.5C 725.463,311.795 730.796,316.795 735.5,322.5C 738.883,327.068 742.55,331.568 746.5,336C 745.756,337.039 744.756,337.539 743.5,337.5C 737.46,334.149 731.46,330.816 725.5,327.5C 725.461,326.417 725.127,325.417 724.5,324.5C 721.92,323.451 719.254,322.784 716.5,322.5C 713.982,321.736 711.649,320.736 709.5,319.5C 709.426,317.589 708.426,316.422 706.5,316C 703.647,314.57 700.647,313.737 697.5,313.5C 688.634,310.792 679.967,307.792 671.5,304.5C 671.5,304.167 671.5,303.833 671.5,303.5 Z"/></g>
<g><path style="opacity:1" fill="#575c9a" d="M 431.5,325.5 C 420.574,330.257 409.907,335.59 399.5,341.5C 400.251,336.445 403.251,334.445 408.5,335.5C 408.33,334.178 408.663,333.011 409.5,332C 412.576,331.654 415.576,330.988 418.5,330C 422.22,326.81 426.554,325.31 431.5,325.5 Z"/></g>
<g><path style="opacity:1" fill="#f7e8de" d="M 687.5,351.5 C 685.5,351.5 683.5,351.5 681.5,351.5C 678.888,350.629 676.221,349.963 673.5,349.5C 662.467,346.701 651.134,345.035 639.5,344.5C 621.007,343.503 602.341,343.17 583.5,343.5C 578.821,343.334 574.155,343.501 569.5,344C 568.584,344.278 567.918,344.778 567.5,345.5C 554.55,346.531 541.883,348.531 529.5,351.5C 528.833,351.5 528.167,351.5 527.5,351.5C 529.475,349.91 531.808,348.743 534.5,348C 545.944,346.986 557.278,345.32 568.5,343C 601.853,340.942 635.186,341.275 668.5,344C 672.976,345.953 677.643,347.286 682.5,348C 681.5,348.333 680.5,348.667 679.5,349C 682.675,348.947 685.342,349.78 687.5,351.5 Z"/></g>
<g><path style="opacity:1" fill="#5a5f93" d="M 271.5,329.5 C 268.852,332.781 266.686,336.448 265,340.5C 260.876,343.467 257.709,347.134 255.5,351.5C 254.167,351.5 252.833,351.5 251.5,351.5C 257.826,343.842 264.492,336.508 271.5,329.5 Z"/></g>
<g><path style="opacity:1" fill="#f1c5bd" d="M 583.5,343.5 C 579.833,344.167 576.167,344.833 572.5,345.5C 571.833,345.5 571.167,345.5 570.5,345.5C 569.5,345.5 568.5,345.5 567.5,345.5C 567.918,344.778 568.584,344.278 569.5,344C 574.155,343.501 578.821,343.334 583.5,343.5 Z"/></g>
<g><path style="opacity:1" fill="#4851b5" d="M 281.5,319.5 C 281.649,320.552 281.483,321.552 281,322.5C 277.568,324.681 275.068,327.681 273.5,331.5C 277.887,334.93 277.22,336.264 271.5,335.5C 271.663,337.857 271.497,340.19 271,342.5C 269.915,341.707 268.748,341.04 267.5,340.5C 264.442,343.536 264.942,345.536 269,346.5C 269.525,350.465 267.691,352.131 263.5,351.5C 263.5,350.5 263.5,349.5 263.5,348.5C 260.833,349.5 258.167,350.5 255.5,351.5C 257.709,347.134 260.876,343.467 265,340.5C 266.686,336.448 268.852,332.781 271.5,329.5C 274.527,325.806 277.86,322.473 281.5,319.5 Z"/></g>
<g><path style="opacity:1" fill="#b55b55" d="M 583.5,343.5 C 602.341,343.17 621.007,343.503 639.5,344.5C 623.325,344.17 607.325,344.504 591.5,345.5C 585.167,345.5 578.833,345.5 572.5,345.5C 576.167,344.833 579.833,344.167 583.5,343.5 Z"/></g>
<g><path style="opacity:1" fill="#56599e" d="M 398.5,341.5 C 393.523,344.8 388.523,348.133 383.5,351.5C 383.5,349.833 383.5,348.167 383.5,346.5C 388.303,344.304 393.303,342.638 398.5,341.5 Z"/></g>
<g><path style="opacity:1" fill="#b85754" d="M 639.5,344.5 C 651.134,345.035 662.467,346.701 673.5,349.5C 664.268,348.171 654.935,347.338 645.5,347C 642.949,346.998 640.949,346.164 639.5,344.5 Z"/></g>
<g><path style="opacity:1" fill="#cd4846" d="M 570.5,345.5 C 571.167,345.5 571.833,345.5 572.5,345.5C 578.833,345.5 585.167,345.5 591.5,345.5C 585.013,346.328 578.346,346.828 571.5,347C 551.722,351.105 531.722,354.271 511.5,356.5C 515.583,354.978 519.916,353.978 524.5,353.5C 526.03,353.36 527.03,352.693 527.5,351.5C 528.167,351.5 528.833,351.5 529.5,351.5C 543.433,350.386 557.099,348.386 570.5,345.5 Z"/></g>
<g><path style="opacity:1" fill="#b65e5c" d="M 567.5,345.5 C 568.5,345.5 569.5,345.5 570.5,345.5C 557.099,348.386 543.433,350.386 529.5,351.5C 541.883,348.531 554.55,346.531 567.5,345.5 Z"/></g>
<g><path style="opacity:1" fill="#da4237" d="M 591.5,345.5 C 612.214,345.835 632.88,347.002 653.5,349C 654.912,350.306 656.579,351.14 658.5,351.5C 663.997,350.199 669.497,350.199 675,351.5C 677.545,353.186 680.378,354.186 683.5,354.5C 690.273,354.861 696.94,355.861 703.5,357.5C 703.791,358.649 704.624,359.316 706,359.5C 708.87,360.093 711.703,360.759 714.5,361.5C 715.492,361.328 716.158,361.662 716.5,362.5C 718.545,363.923 719.545,365.923 719.5,368.5C 727.137,370.077 734.47,372.577 741.5,376C 744.5,377.667 746.833,380 748.5,383C 753.821,385.104 758.821,387.77 763.5,391C 765.746,392.257 767.079,394.09 767.5,396.5C 769.995,397.199 772.328,398.199 774.5,399.5C 776.5,403.5 779.5,406.5 783.5,408.5C 784.801,410.672 785.801,413.005 786.5,415.5C 787.5,415.5 788.5,415.5 789.5,415.5C 790.167,415.5 790.5,415.833 790.5,416.5C 792.311,419.444 794.144,422.444 796,425.5C 796.816,426.823 797.983,427.489 799.5,427.5C 799.5,427.833 799.5,428.167 799.5,428.5C 800.67,433.51 803.337,437.51 807.5,440.5C 808.977,445.405 810.31,450.405 811.5,455.5C 812.736,456.246 814.07,456.579 815.5,456.5C 815.599,459.639 816.932,461.973 819.5,463.5C 820.43,468.133 821.43,472.8 822.5,477.5C 822.179,479.048 821.179,479.715 819.5,479.5C 819.701,482.728 819.367,485.895 818.5,489C 819.01,490.826 819.844,490.993 821,489.5C 821.226,486.905 821.726,484.405 822.5,482C 823.742,481.689 824.742,482.189 825.5,483.5C 826.277,489.325 826.944,495.158 827.5,501C 828.531,503.692 830.531,505.192 833.5,505.5C 834.256,517.017 835.756,528.351 838,539.5C 838.5,556.83 838.667,574.163 838.5,591.5C 838.599,594.237 838.265,596.904 837.5,599.5C 836.542,599.953 835.708,600.619 835,601.5C 833.692,611.491 832.525,621.491 831.5,631.5C 831.5,632.167 831.5,632.833 831.5,633.5C 830.542,633.953 829.708,634.619 829,635.5C 826.669,643.163 824.502,650.829 822.5,658.5C 821.504,658.414 820.671,658.748 820,659.5C 819.832,663.498 818.332,666.831 815.5,669.5C 815.756,670.689 816.089,671.856 816.5,673C 814.262,677.553 812.928,682.386 812.5,687.5C 811.265,687.721 810.265,688.388 809.5,689.5C 807.271,693.959 805.605,698.626 804.5,703.5C 803.5,703.5 802.5,703.5 801.5,703.5C 800.594,706.436 799.928,709.436 799.5,712.5C 795.684,713.09 794.017,715.423 794.5,719.5C 792.968,720.677 791.468,722.011 790,723.5C 789.51,724.793 789.343,726.127 789.5,727.5C 786.762,728.035 784.928,727.035 784,724.5C 783.501,728.152 783.335,731.818 783.5,735.5C 783.5,736.167 783.5,736.833 783.5,737.5C 781.718,736.28 779.718,735.614 777.5,735.5C 777.36,737.124 778.027,738.29 779.5,739C 778.663,740.011 778.33,741.178 778.5,742.5C 777.127,742.343 775.793,742.51 774.5,743C 774.833,743.333 775.167,743.667 775.5,744C 774.376,744.249 773.376,744.749 772.5,745.5C 771.572,749.672 769.906,753.339 767.5,756.5C 764.858,756.488 763.525,757.821 763.5,760.5C 760.753,763.257 757.753,765.591 754.5,767.5C 752.639,769.745 751.639,772.412 751.5,775.5C 747.211,774.483 744.878,776.15 744.5,780.5C 742.027,782.061 740.027,784.061 738.5,786.5C 737.675,787.386 736.675,787.719 735.5,787.5C 735.5,788.5 735.5,789.5 735.5,790.5C 734.448,790.351 733.448,790.517 732.5,791C 730.792,793.043 728.792,794.71 726.5,796C 725.663,797.011 725.33,798.178 725.5,799.5C 719.307,802.02 713.974,805.853 709.5,811C 706.475,811.154 704.809,812.654 704.5,815.5C 703.833,816.167 703.167,816.833 702.5,817.5C 697.112,819.362 692.112,822.029 687.5,825.5C 685.577,826.308 683.577,826.808 681.5,827C 679.963,828.11 679.297,829.61 679.5,831.5C 676.67,831.694 674.004,832.361 671.5,833.5C 671.5,834.5 671.5,835.5 671.5,836.5C 671.5,837.167 671.167,837.5 670.5,837.5C 666.386,837.386 663.386,839.052 661.5,842.5C 657.828,843.021 654.162,843.687 650.5,844.5C 649.96,845.748 649.293,846.915 648.5,848C 645.725,848.591 643.225,849.758 641,851.5C 637.895,852.367 634.728,852.701 631.5,852.5C 631.5,853.5 631.5,854.5 631.5,855.5C 626.521,856.984 621.521,858.484 616.5,860C 615.177,860.816 614.511,861.983 614.5,863.5C 614.167,863.5 613.833,863.5 613.5,863.5C 595.286,866.612 577.286,870.112 559.5,874C 554.177,874.499 548.844,874.666 543.5,874.5C 516.833,874.5 490.167,874.5 463.5,874.5C 456.496,872.076 449.163,871.076 441.5,871.5C 441.209,870.351 440.376,869.684 439,869.5C 429.6,868.281 420.433,866.281 411.5,863.5C 410.833,863.5 410.167,863.5 409.5,863.5C 407.218,859.909 403.884,858.576 399.5,859.5C 391.209,854.286 382.209,850.119 372.5,847C 370.679,844.863 368.346,844.03 365.5,844.5C 365.092,843.357 364.425,842.357 363.5,841.5C 360.497,840.334 357.83,838.667 355.5,836.5C 353.293,835.365 350.96,834.699 348.5,834.5C 346.197,828.767 341.864,826.1 335.5,826.5C 334.645,825.469 333.978,824.303 333.5,823C 334.707,821.7 335.374,820.2 335.5,818.5C 333.723,818.786 332.056,819.453 330.5,820.5C 329.151,820.154 327.817,819.821 326.5,819.5C 323.709,816.731 321.542,813.397 320,809.5C 319.667,810.167 319.333,810.833 319,811.5C 317.681,809.513 315.848,808.346 313.5,808C 312.527,805.453 310.693,803.953 308,803.5C 307.535,802.069 306.701,800.903 305.5,800C 305.833,799.667 306.167,799.333 306.5,799C 305.552,798.517 304.552,798.351 303.5,798.5C 303.5,797.5 303.5,796.5 303.5,795.5C 300.833,795.167 298.167,794.833 295.5,794.5C 294.222,792.177 293.222,789.677 292.5,787C 292.735,786.127 293.069,785.293 293.5,784.5C 290.173,783 286.839,781.5 283.5,780C 282.663,778.989 282.33,777.822 282.5,776.5C 285.206,776.575 287.873,776.908 290.5,777.5C 290.833,777.5 291.167,777.5 291.5,777.5C 292.546,782.937 295.88,784.937 301.5,783.5C 302.167,783.5 302.833,783.5 303.5,783.5C 303.414,784.496 303.748,785.329 304.5,786C 309.403,787.914 314.07,790.247 318.5,793C 317.346,793.914 317.513,794.747 319,795.5C 320.902,794.614 322.735,794.947 324.5,796.5C 327.428,797.484 330.428,797.817 333.5,797.5C 334.492,797.328 335.158,797.662 335.5,798.5C 340.019,802.114 345.352,803.781 351.5,803.5C 351.881,804.931 352.881,805.764 354.5,806C 358.79,806.923 363.123,807.423 367.5,807.5C 369.732,809.195 372.399,810.362 375.5,811C 383.553,811.516 391.553,812.349 399.5,813.5C 408.327,814.166 417.327,814.5 426.5,814.5C 439.04,814.712 451.374,814.045 463.5,812.5C 468.833,811.833 474.167,811.167 479.5,810.5C 489.321,810.949 498.987,809.949 508.5,807.5C 510.246,807.971 511.913,808.638 513.5,809.5C 516.063,809.263 516.063,808.763 513.5,808C 519.899,805.364 526.565,803.697 533.5,803C 534.71,801.961 535.71,800.794 536.5,799.5C 541.207,798.99 545.873,798.157 550.5,797C 553.777,795.688 556.777,794.188 559.5,792.5C 565.599,792.569 570.932,790.902 575.5,787.5C 579.775,788.25 583.109,786.917 585.5,783.5C 588.082,783.975 590.082,783.308 591.5,781.5C 591.47,780.503 591.97,779.836 593,779.5C 598.345,777.909 603.511,775.909 608.5,773.5C 612.979,772.765 616.645,770.765 619.5,767.5C 621.483,767.843 622.817,767.176 623.5,765.5C 629.205,765.28 633.538,762.78 636.5,758C 638.788,757.178 641.122,756.511 643.5,756C 645.966,752.366 648.966,749.2 652.5,746.5C 654.339,745.248 656.172,745.248 658,746.5C 660.643,743.13 664.143,741.796 668.5,742.5C 668.5,741.167 668.5,739.833 668.5,738.5C 669.5,738.5 670.5,738.5 671.5,738.5C 671.5,737.5 671.5,736.5 671.5,735.5C 673.199,735.66 674.866,735.494 676.5,735C 675.426,734.261 674.759,733.261 674.5,732C 675.078,730.189 675.578,728.355 676,726.5C 678.127,724.886 679.627,722.886 680.5,720.5C 682.105,717.393 684.272,714.726 687,712.5C 687.483,711.552 687.649,710.552 687.5,709.5C 688.822,709.67 689.989,709.337 691,708.5C 692.249,704.129 694.083,700.129 696.5,696.5C 698.475,692.182 700.808,688.182 703.5,684.5C 704.496,684.586 705.329,684.252 706,683.5C 706.93,680.638 708.597,678.305 711,676.5C 711.497,674.19 711.663,671.857 711.5,669.5C 711.5,669.167 711.5,668.833 711.5,668.5C 712.376,668.631 713.043,668.298 713.5,667.5C 716.589,661.468 718.589,655.135 719.5,648.5C 721.411,648.426 722.578,647.426 723,645.5C 723.499,641.848 723.665,638.182 723.5,634.5C 723.5,634.167 723.5,633.833 723.5,633.5C 724.79,632.942 725.623,631.942 726,630.5C 730.243,612.45 732.41,594.116 732.5,575.5C 732.495,569.789 731.828,564.456 730.5,559.5C 730.5,555.833 730.5,552.167 730.5,548.5C 730.753,542.127 730.419,535.794 729.5,529.5C 730.933,527.664 731.433,525.664 731,523.5C 730.085,524.328 729.419,525.328 729,526.5C 726.898,522.036 724.731,517.536 722.5,513C 722.164,511.97 721.497,511.47 720.5,511.5C 718.25,508.001 716.25,504.335 714.5,500.5C 713.104,496.709 711.438,493.042 709.5,489.5C 707.929,487.585 705.929,486.585 703.5,486.5C 703.128,482.957 701.128,480.79 697.5,480C 694.074,474.268 689.074,470.435 682.5,468.5C 677.016,466.593 672.016,463.927 667.5,460.5C 667.631,459.624 667.298,458.957 666.5,458.5C 663.671,457.253 661.005,455.753 658.5,454C 655.21,453.275 652.21,452.108 649.5,450.5C 649.119,449.069 648.119,448.236 646.5,448C 641.873,446.843 637.207,446.01 632.5,445.5C 632.082,444.778 631.416,444.278 630.5,444C 620.173,442.333 609.839,440.833 599.5,439.5C 598.232,437.613 596.399,436.613 594,436.5C 576.985,436.965 560.151,437.965 543.5,439.5C 538.719,439.348 534.052,440.014 529.5,441.5C 528.287,441.747 527.62,442.414 527.5,443.5C 522.155,443.687 516.822,444.02 511.5,444.5C 511.5,445.5 511.5,446.5 511.5,447.5C 505.023,448.09 499.69,450.757 495.5,455.5C 493.692,455.491 492.025,455.991 490.5,457C 489.636,458.697 488.303,459.863 486.5,460.5C 485.614,461.325 485.281,462.325 485.5,463.5C 484.448,463.351 483.448,463.517 482.5,464C 476.562,470.095 471.229,476.595 466.5,483.5C 465.833,482.167 465.167,480.833 464.5,479.5C 464.803,484.8 464.469,490.134 463.5,495.5C 462.625,497.568 461.459,499.568 460,501.5C 459.215,526.186 459.382,550.853 460.5,575.5C 461.5,575.5 462.5,575.5 463.5,575.5C 463.871,579.25 465.871,581.583 469.5,582.5C 468.79,585.86 470.124,587.693 473.5,588C 474.45,590.91 476.45,592.077 479.5,591.5C 479.47,592.497 479.97,593.164 481,593.5C 485.953,595.399 490.786,597.399 495.5,599.5C 495.5,601.167 495.5,602.833 495.5,604.5C 490.858,605.34 486.192,605.507 481.5,605C 480.244,605.417 479.577,606.25 479.5,607.5C 465.399,607.983 451.399,609.316 437.5,611.5C 434.167,611.333 430.833,611.167 427.5,611C 423.75,608.957 419.75,607.791 415.5,607.5C 415.5,605.833 415.5,604.167 415.5,602.5C 411.699,601.55 408.199,599.883 405,597.5C 404.727,595.899 404.227,594.399 403.5,593C 404.167,592.667 404.833,592.333 405.5,592C 403.527,591.505 401.527,591.338 399.5,591.5C 399.657,590.127 399.49,588.793 399,587.5C 396.538,583.565 394.371,579.565 392.5,575.5C 392.014,534.805 392.681,494.138 394.5,453.5C 396.449,449.103 398.115,444.436 399.5,439.5C 401.411,439.426 402.578,438.426 403,436.5C 403.114,431.826 404.28,427.493 406.5,423.5C 408.274,422.813 409.941,421.98 411.5,421C 410.594,419.301 410.261,417.467 410.5,415.5C 411.5,415.5 412.5,415.5 413.5,415.5C 413.238,416.978 413.571,418.311 414.5,419.5C 415.172,418.051 415.839,416.718 416.5,415.5C 418.075,412.626 419.408,409.459 420.5,406C 423.206,404.092 426.206,403.259 429.5,403.5C 429.238,402.022 429.571,400.689 430.5,399.5C 434.251,397.815 435.251,395.149 433.5,391.5C 434.473,389.36 435.973,387.693 438,386.5C 438.483,385.552 438.649,384.552 438.5,383.5C 439.978,383.762 441.311,383.429 442.5,382.5C 448.194,378.462 453.861,374.462 459.5,370.5C 461.527,370.662 463.527,370.495 465.5,370C 469.964,366.944 474.631,364.778 479.5,363.5C 490.467,361.681 501.134,359.347 511.5,356.5C 531.722,354.271 551.722,351.105 571.5,347C 578.346,346.828 585.013,346.328 591.5,345.5 Z"/></g>
<g><path style="opacity:1" fill="#d04741" d="M 591.5,345.5 C 607.325,344.504 623.325,344.17 639.5,344.5C 640.949,346.164 642.949,346.998 645.5,347C 654.935,347.338 664.268,348.171 673.5,349.5C 676.221,349.963 678.888,350.629 681.5,351.5C 682.167,352.5 682.833,353.5 683.5,354.5C 680.378,354.186 677.545,353.186 675,351.5C 669.497,350.199 663.997,350.199 658.5,351.5C 656.579,351.14 654.912,350.306 653.5,349C 632.88,347.002 612.214,345.835 591.5,345.5 Z"/></g>
<g><path style="opacity:1" fill="#bf5c52" d="M 681.5,351.5 C 683.5,351.5 685.5,351.5 687.5,351.5C 692.819,353.491 698.152,355.491 703.5,357.5C 696.94,355.861 690.273,354.861 683.5,354.5C 682.833,353.5 682.167,352.5 681.5,351.5 Z"/></g>
<g><path style="opacity:1" fill="#545c9a" d="M 382.5,351.5 C 376.509,356.164 370.509,360.831 364.5,365.5C 365.956,363.716 366.956,361.716 367.5,359.5C 368.552,359.649 369.552,359.483 370.5,359C 373.956,355.328 377.956,352.828 382.5,351.5 Z"/></g>
<g><path style="opacity:1" fill="#ce7571" d="M 703.5,357.5 C 706.815,358.329 710.148,359.162 713.5,360C 714.056,360.383 714.389,360.883 714.5,361.5C 711.703,360.759 708.87,360.093 706,359.5C 704.624,359.316 703.791,358.649 703.5,357.5 Z"/></g>
<g><path style="opacity:1" fill="#ba625f" d="M 527.5,351.5 C 527.03,352.693 526.03,353.36 524.5,353.5C 519.916,353.978 515.583,354.978 511.5,356.5C 501.134,359.347 490.467,361.681 479.5,363.5C 495.009,358.235 511.009,354.235 527.5,351.5 Z"/></g>
<g><path style="opacity:1" fill="#f9f1e6" d="M 687.5,351.5 C 691.783,351.377 695.95,352.044 700,353.5C 702.66,352.383 705.16,352.55 707.5,354C 706.612,355.717 707.279,356.884 709.5,357.5C 716.211,359.375 722.878,361.375 729.5,363.5C 730.174,365.195 730.841,366.862 731.5,368.5C 726.572,366.198 721.572,364.198 716.5,362.5C 716.158,361.662 715.492,361.328 714.5,361.5C 714.389,360.883 714.056,360.383 713.5,360C 710.148,359.162 706.815,358.329 703.5,357.5C 698.152,355.491 692.819,353.491 687.5,351.5 Z"/></g>
<g><path style="opacity:1" fill="#5256a4" d="M 251.5,351.5 C 252.833,351.5 254.167,351.5 255.5,351.5C 255.67,352.822 255.337,353.989 254.5,355C 252.899,355.273 251.399,355.773 250,356.5C 249.529,358.246 248.862,359.913 248,361.5C 245.108,363.394 243.441,366.061 243,369.5C 237.926,372.424 233.759,376.091 230.5,380.5C 236.778,370.265 243.778,360.598 251.5,351.5 Z"/></g>
<g><path style="opacity:1" fill="#4750b2" d="M 353.5,375.5 C 351.167,378.5 348.5,381.167 345.5,383.5C 343.486,383.392 341.82,384.058 340.5,385.5C 338.315,383.951 336.982,381.784 336.5,379C 338.048,375.335 338.715,371.501 338.5,367.5C 340.924,367.192 343.257,367.526 345.5,368.5C 344.533,370.63 343.366,372.63 342,374.5C 341.192,376.579 341.359,378.579 342.5,380.5C 343.842,379.098 344.676,379.431 345,381.5C 346.608,377.72 349.442,375.72 353.5,375.5 Z"/></g>
<g><path style="opacity:1" fill="#bd5851" d="M 716.5,362.5 C 721.572,364.198 726.572,366.198 731.5,368.5C 743.947,375.563 755.947,383.396 767.5,392C 770.039,394.37 772.372,396.87 774.5,399.5C 772.328,398.199 769.995,397.199 767.5,396.5C 767.079,394.09 765.746,392.257 763.5,391C 758.821,387.77 753.821,385.104 748.5,383C 746.833,380 744.5,377.667 741.5,376C 734.47,372.577 727.137,370.077 719.5,368.5C 719.545,365.923 718.545,363.923 716.5,362.5 Z"/></g>
<g><path style="opacity:1" fill="#bf5d52" d="M 479.5,363.5 C 474.631,364.778 469.964,366.944 465.5,370C 463.527,370.495 461.527,370.662 459.5,370.5C 465.68,366.994 472.346,364.661 479.5,363.5 Z"/></g>
<g><path style="opacity:1" fill="#b05e55" d="M 459.5,370.5 C 453.861,374.462 448.194,378.462 442.5,382.5C 441.311,383.429 439.978,383.762 438.5,383.5C 439.29,382.206 440.29,381.039 441.5,380C 447.427,376.538 453.427,373.372 459.5,370.5 Z"/></g>
<g><path style="opacity:1" fill="#53589e" d="M 345.5,383.5 C 341.635,389.24 337.302,394.573 332.5,399.5C 332.343,398.127 332.51,396.793 333,395.5C 335.387,392.064 337.887,388.73 340.5,385.5C 341.82,384.058 343.486,383.392 345.5,383.5 Z"/></g>
<g><path style="opacity:1" fill="#b05f58" d="M 431.5,388.5 C 428.833,392.167 426.167,395.833 423.5,399.5C 421.597,402.458 418.93,404.458 415.5,405.5C 420.157,399.177 425.49,393.51 431.5,388.5 Z"/></g>
<g><path style="opacity:1" fill="#b15a4d" d="M 774.5,399.5 C 777.833,402.167 780.833,405.167 783.5,408.5C 779.5,406.5 776.5,403.5 774.5,399.5 Z"/></g>
<g><path style="opacity:1" fill="#d54741" d="M 438.5,383.5 C 438.649,384.552 438.483,385.552 438,386.5C 435.973,387.693 434.473,389.36 433.5,391.5C 435.251,395.149 434.251,397.815 430.5,399.5C 429.571,400.689 429.238,402.022 429.5,403.5C 426.206,403.259 423.206,404.092 420.5,406C 419.408,409.459 418.075,412.626 416.5,415.5C 416.199,409.829 418.366,405.496 423,402.5C 423.483,401.552 423.649,400.552 423.5,399.5C 426.167,395.833 428.833,392.167 431.5,388.5C 433.55,386.453 435.883,384.786 438.5,383.5 Z"/></g>
<g><path style="opacity:1" fill="#ca4d45" d="M 423.5,399.5 C 423.649,400.552 423.483,401.552 423,402.5C 418.366,405.496 416.199,409.829 416.5,415.5C 415.839,416.718 415.172,418.051 414.5,419.5C 413.571,418.311 413.238,416.978 413.5,415.5C 412.5,415.5 411.5,415.5 410.5,415.5C 410.261,417.467 410.594,419.301 411.5,421C 409.941,421.98 408.274,422.813 406.5,423.5C 404.28,427.493 403.114,431.826 403,436.5C 402.578,438.426 401.411,439.426 399.5,439.5C 401.5,436.159 402.5,432.493 402.5,428.5C 406.048,420.406 410.381,412.739 415.5,405.5C 418.93,404.458 421.597,402.458 423.5,399.5 Z"/></g>
<g><path style="opacity:1" fill="#b3655c" d="M 783.5,408.5 C 786.243,410.239 788.243,412.573 789.5,415.5C 788.5,415.5 787.5,415.5 786.5,415.5C 785.801,413.005 784.801,410.672 783.5,408.5 Z"/></g>
<g><path style="opacity:1" fill="#5559a2" d="M 230.5,380.5 C 227.564,388.267 224.398,395.933 221,403.5C 219.667,404.167 218.333,404.833 217,405.5C 216.426,408.563 215.092,411.229 213,413.5C 212.703,416.914 212.036,420.247 211,423.5C 209.866,424.425 208.699,425.425 207.5,426.5C 205.598,433.686 203.598,440.686 201.5,447.5C 200.167,447.5 198.833,447.5 197.5,447.5C 205.664,423.618 216.664,401.285 230.5,380.5 Z"/></g>
<g><path style="opacity:1" fill="#bb6866" d="M 790.5,416.5 C 793.848,419.851 796.848,423.518 799.5,427.5C 797.983,427.489 796.816,426.823 796,425.5C 794.144,422.444 792.311,419.444 790.5,416.5 Z"/></g>
<g><path style="opacity:1" fill="#4a53ad" d="M 332.5,399.5 C 328.308,407.204 323.475,414.538 318,421.5C 315.058,428.379 311.892,435.046 308.5,441.5C 307.624,441.369 306.957,441.702 306.5,442.5C 305.972,444.336 305.306,446.003 304.5,447.5C 304.319,444.447 304.152,441.447 304,438.5C 304.71,439.973 305.876,440.64 307.5,440.5C 307.335,437.482 307.502,434.482 308,431.5C 310.155,434.049 311.655,433.549 312.5,430C 310.823,427.453 310.156,424.62 310.5,421.5C 311.5,421.5 312.5,421.5 313.5,421.5C 314.117,425.422 314.784,425.422 315.5,421.5C 315.16,419.488 314.827,417.488 314.5,415.5C 316.143,415.48 317.476,416.147 318.5,417.5C 318.833,417.167 319.167,416.833 319.5,416.5C 320.147,412.876 320.314,409.21 320,405.5C 320.667,406.833 321.333,408.167 322,409.5C 323.011,408.663 324.178,408.33 325.5,408.5C 325.5,406.5 325.5,404.5 325.5,402.5C 324.5,402.5 323.5,402.5 322.5,402.5C 322.765,398.147 323.265,393.813 324,389.5C 326.91,388.55 328.077,386.55 327.5,383.5C 338.466,383.255 338.966,384.922 329,388.5C 327.739,392.062 326.906,395.729 326.5,399.5C 328.5,399.5 330.5,399.5 332.5,399.5 Z"/></g>
<g><path style="opacity:1" fill="#b76962" d="M 799.5,428.5 C 800.794,429.29 801.961,430.29 803,431.5C 803.999,434.832 805.499,437.832 807.5,440.5C 803.337,437.51 800.67,433.51 799.5,428.5 Z"/></g>
<g><path style="opacity:1" fill="#bb5e55" d="M 402.5,428.5 C 402.5,432.493 401.5,436.159 399.5,439.5C 398.115,444.436 396.449,449.103 394.5,453.5C 395.487,444.527 398.154,436.194 402.5,428.5 Z"/></g>
<g><path style="opacity:1" fill="#c14e47" d="M 599.5,439.5 C 596.833,439.5 594.167,439.5 591.5,439.5C 578.833,439.5 566.167,439.5 553.5,439.5C 550.167,439.5 546.833,439.5 543.5,439.5C 560.151,437.965 576.985,436.965 594,436.5C 596.399,436.613 598.232,437.613 599.5,439.5 Z"/></g>
<g><path style="opacity:1" fill="#f8ece1" d="M 553.5,439.5 C 566.167,439.5 578.833,439.5 591.5,439.5C 598.901,440.4 606.235,441.734 613.5,443.5C 590.208,441.806 566.875,441.14 543.5,441.5C 546.833,440.833 550.167,440.167 553.5,439.5 Z"/></g>
<g><path style="opacity:1" fill="#b75a53" d="M 543.5,439.5 C 546.833,439.5 550.167,439.5 553.5,439.5C 550.167,440.167 546.833,440.833 543.5,441.5C 542.167,441.5 540.833,441.5 539.5,441.5C 535.626,442.761 531.626,443.428 527.5,443.5C 527.62,442.414 528.287,441.747 529.5,441.5C 534.052,440.014 538.719,439.348 543.5,439.5 Z"/></g>
<g><path style="opacity:1" fill="#50598e" d="M 308.5,441.5 C 307.069,446.011 305.402,450.345 303.5,454.5C 303.198,451.941 303.532,449.607 304.5,447.5C 305.306,446.003 305.972,444.336 306.5,442.5C 306.957,441.702 307.624,441.369 308.5,441.5 Z"/></g>
<g><path style="opacity:1" fill="#b7605a" d="M 591.5,439.5 C 594.167,439.5 596.833,439.5 599.5,439.5C 609.839,440.833 620.173,442.333 630.5,444C 631.416,444.278 632.082,444.778 632.5,445.5C 632.833,446.167 633.167,446.833 633.5,447.5C 626.988,445.525 620.321,444.192 613.5,443.5C 606.235,441.734 598.901,440.4 591.5,439.5 Z"/></g>
<g><path style="opacity:1" fill="#bb5558" d="M 527.5,443.5 C 523.442,444.63 519.442,445.964 515.5,447.5C 514.167,447.5 512.833,447.5 511.5,447.5C 511.5,446.5 511.5,445.5 511.5,444.5C 516.822,444.02 522.155,443.687 527.5,443.5 Z"/></g>
<g><path style="opacity:1" fill="#f8d6d4" d="M 539.5,441.5 C 537.615,443.311 535.281,444.478 532.5,445C 526.728,445.436 521.061,446.269 515.5,447.5C 519.442,445.964 523.442,444.63 527.5,443.5C 531.626,443.428 535.626,442.761 539.5,441.5 Z"/></g>
<g><path style="opacity:1" fill="#c45047" d="M 632.5,445.5 C 637.207,446.01 641.873,446.843 646.5,448C 648.119,448.236 649.119,449.069 649.5,450.5C 648.167,450.5 646.833,450.5 645.5,450.5C 641.516,449.512 637.516,448.512 633.5,447.5C 633.167,446.833 632.833,446.167 632.5,445.5 Z"/></g>
<g><path style="opacity:1" fill="#bb5f58" d="M 511.5,447.5 C 506.516,450.659 501.182,453.326 495.5,455.5C 499.69,450.757 505.023,448.09 511.5,447.5 Z"/></g>
<g><path style="opacity:1" fill="#b3635f" d="M 645.5,450.5 C 646.833,450.5 648.167,450.5 649.5,450.5C 652.21,452.108 655.21,453.275 658.5,454C 661.005,455.753 663.671,457.253 666.5,458.5C 667.298,458.957 667.631,459.624 667.5,460.5C 660.088,457.124 652.755,453.79 645.5,450.5 Z"/></g>
<g><path style="opacity:1" fill="#c45750" d="M 807.5,440.5 C 812.261,447.686 816.261,455.353 819.5,463.5C 816.932,461.973 815.599,459.639 815.5,456.5C 814.07,456.579 812.736,456.246 811.5,455.5C 810.31,450.405 808.977,445.405 807.5,440.5 Z"/></g>
<g><path style="opacity:1" fill="#f2cbc5" d="M 393.5,453.5 C 393.158,460.677 392.491,467.677 391.5,474.5C 390.872,467.087 391.539,460.087 393.5,453.5 Z"/></g>
<g><path style="opacity:1" fill="#c05555" d="M 495.5,455.5 C 492.48,458.516 489.146,461.183 485.5,463.5C 485.281,462.325 485.614,461.325 486.5,460.5C 488.303,459.863 489.636,458.697 490.5,457C 492.025,455.991 493.692,455.491 495.5,455.5 Z"/></g>
<g><path style="opacity:1" fill="#595aa5" d="M 197.5,449.5 C 196.274,455.004 195.44,460.67 195,466.5C 193.984,467.634 193.317,467.301 193,465.5C 192.722,466.416 192.222,467.082 191.5,467.5C 192.527,461.085 194.527,455.085 197.5,449.5 Z"/></g>
<g><path style="opacity:1" fill="#4e53a3" d="M 303.5,454.5 C 300.678,462.8 298.344,471.133 296.5,479.5C 296.167,479.5 295.833,479.5 295.5,479.5C 295.431,474.146 295.098,468.813 294.5,463.5C 296.167,463.5 297.833,463.5 299.5,463.5C 298.929,459.513 300.262,456.513 303.5,454.5 Z"/></g>
<g><path style="opacity:1" fill="#c35659" d="M 819.5,463.5 C 822.084,468.582 824.084,473.915 825.5,479.5C 824.222,479.218 823.222,478.551 822.5,477.5C 821.43,472.8 820.43,468.133 819.5,463.5 Z"/></g>
<g><path style="opacity:1" fill="#c55248" d="M 485.5,463.5 C 481.211,468.961 476.711,474.294 472,479.5C 470.189,483.116 468.689,486.783 467.5,490.5C 466.515,492.506 465.182,494.173 463.5,495.5C 464.469,490.134 464.803,484.8 464.5,479.5C 465.167,480.833 465.833,482.167 466.5,483.5C 471.229,476.595 476.562,470.095 482.5,464C 483.448,463.517 484.448,463.351 485.5,463.5 Z"/></g>
<g><path style="opacity:1" fill="#c4514d" d="M 682.5,468.5 C 689.074,470.435 694.074,474.268 697.5,480C 701.128,480.79 703.128,482.957 703.5,486.5C 705.929,486.585 707.929,487.585 709.5,489.5C 711.438,493.042 713.104,496.709 714.5,500.5C 704.833,488.833 694.167,478.167 682.5,468.5 Z"/></g>
<g><path style="opacity:1" fill="#d04a44" d="M 822.5,477.5 C 823.222,478.551 824.222,479.218 825.5,479.5C 829.259,487.722 831.925,496.389 833.5,505.5C 830.531,505.192 828.531,503.692 827.5,501C 826.944,495.158 826.277,489.325 825.5,483.5C 824.742,482.189 823.742,481.689 822.5,482C 821.726,484.405 821.226,486.905 821,489.5C 819.844,490.993 819.01,490.826 818.5,489C 819.367,485.895 819.701,482.728 819.5,479.5C 821.179,479.715 822.179,479.048 822.5,477.5 Z"/></g>
<g><path style="opacity:1" fill="#5f619f" d="M 191.5,469.5 C 189.901,481.167 187.568,492.501 184.5,503.5C 185.084,495.414 186.251,487.414 188,479.5C 188.946,475.972 190.113,472.639 191.5,469.5 Z"/></g>
<g><path style="opacity:1" fill="#5a5f8a" d="M 591.5,494.5 C 581.828,494.709 572.161,495.042 562.5,495.5C 568.441,494.089 574.608,493.423 581,493.5C 584.683,493.501 588.183,493.835 591.5,494.5 Z"/></g>
<g><path style="opacity:1" fill="#4e5494" d="M 295.5,479.5 C 295.833,479.5 296.167,479.5 296.5,479.5C 294.782,487.426 293.448,495.426 292.5,503.5C 290.758,516.624 290.091,529.957 290.5,543.5C 289.323,530.324 289.323,516.991 290.5,503.5C 291.769,495.158 293.435,487.158 295.5,479.5 Z"/></g>
<g><path style="opacity:1" fill="#5b5b9b" d="M 596.5,495.5 C 600.151,496.659 603.485,498.326 606.5,500.5C 602.316,500.408 598.983,498.741 596.5,495.5 Z"/></g>
<g><path style="opacity:1" fill="#f9ede4" d="M 467.5,490.5 C 467.701,493.728 467.367,496.895 466.5,500C 467.167,500.667 467.833,501.333 468.5,502C 467.795,504.707 466.295,506.874 464,508.5C 461.724,527.082 460.89,545.749 461.5,564.5C 460.338,547.005 460.171,529.338 461,511.5C 462.158,506.205 462.991,500.872 463.5,495.5C 465.182,494.173 466.515,492.506 467.5,490.5 Z"/></g>
<g><path style="opacity:1" fill="#bc4e4d" d="M 393.5,453.5 C 393.833,453.5 394.167,453.5 394.5,453.5C 392.681,494.138 392.014,534.805 392.5,575.5C 392.167,575.5 391.833,575.5 391.5,575.5C 390.57,564.872 390.237,554.205 390.5,543.5C 391.299,520.509 391.632,497.509 391.5,474.5C 392.491,467.677 393.158,460.677 393.5,453.5 Z"/></g>
<g><path style="opacity:1" fill="#435795" d="M 187.5,504.5 C 188.117,504.611 188.617,504.944 189,505.5C 189.495,507.473 189.662,509.473 189.5,511.5C 188.5,511.5 187.5,511.5 186.5,511.5C 186.674,509.139 187.007,506.806 187.5,504.5 Z"/></g>
<g><path style="opacity:1" fill="#595a90" d="M 559.5,495.5 C 558.666,496.748 557.333,497.415 555.5,497.5C 545.908,498.32 536.574,499.986 527.5,502.5C 527.5,504.5 527.5,506.5 527.5,508.5C 531.769,510.635 536.103,512.801 540.5,515C 542.439,515.908 543.439,517.408 543.5,519.5C 538.852,516.172 533.852,513.339 528.5,511C 522.858,506.639 523.191,502.973 529.5,500C 539.483,498.243 549.483,496.743 559.5,495.5 Z"/></g>
<g><path style="opacity:1" fill="#454fb5" d="M 591.5,494.5 C 592.919,495.451 594.585,495.784 596.5,495.5C 598.983,498.741 602.316,500.408 606.5,500.5C 611.729,502.436 615.729,505.769 618.5,510.5C 618.488,513.142 619.821,514.475 622.5,514.5C 623.338,514.842 623.672,515.508 623.5,516.5C 620.348,517.041 617.848,516.041 616,513.5C 615.018,508.686 612.185,505.686 607.5,504.5C 607.022,507.278 608.022,509.278 610.5,510.5C 609.305,511.967 609.305,513.467 610.5,515C 610.387,516.28 609.72,517.113 608.5,517.5C 607.52,514.914 607.187,512.247 607.5,509.5C 602.155,509.313 596.822,508.98 591.5,508.5C 591.5,507.167 591.5,505.833 591.5,504.5C 595.555,504.824 599.555,504.491 603.5,503.5C 603.291,502.914 602.957,502.414 602.5,502C 596.697,498.583 590.364,497.083 583.5,497.5C 572.45,499.037 561.45,500.203 550.5,501C 553.224,501.27 555.891,501.77 558.5,502.5C 559.386,503.325 559.719,504.325 559.5,505.5C 554.167,505.5 548.833,505.5 543.5,505.5C 543.5,506.833 543.5,508.167 543.5,509.5C 548.887,509.405 554.22,509.905 559.5,511C 556.167,511.333 552.833,511.667 549.5,512C 548.941,512.725 548.608,513.558 548.5,514.5C 549.803,517.803 552.137,520.137 555.5,521.5C 558.243,514.661 559.576,514.994 559.5,522.5C 558.5,522.5 557.5,522.5 556.5,522.5C 556.5,524.167 556.5,525.833 556.5,527.5C 555.5,527.5 554.5,527.5 553.5,527.5C 551.724,523.273 548.391,520.607 543.5,519.5C 543.439,517.408 542.439,515.908 540.5,515C 536.103,512.801 531.769,510.635 527.5,508.5C 527.5,506.5 527.5,504.5 527.5,502.5C 536.574,499.986 545.908,498.32 555.5,497.5C 557.333,497.415 558.666,496.748 559.5,495.5C 560.5,495.5 561.5,495.5 562.5,495.5C 572.161,495.042 581.828,494.709 591.5,494.5 Z"/></g>
<g><path style="opacity:1" fill="#61678f" d="M 618.5,510.5 C 620.167,511.5 621.5,512.833 622.5,514.5C 619.821,514.475 618.488,513.142 618.5,510.5 Z"/></g>
<g><path style="opacity:1" fill="#575c9e" d="M 543.5,519.5 C 548.391,520.607 551.724,523.273 553.5,527.5C 557.186,532.204 559.186,537.537 559.5,543.5C 557.519,536.98 554.352,530.98 550,525.5C 547.336,524.002 545.17,522.002 543.5,519.5 Z"/></g>
<g><path style="opacity:1" fill="#c35046" d="M 720.5,511.5 C 721.497,511.47 722.164,511.97 722.5,513C 724.731,517.536 726.898,522.036 729,526.5C 729.419,525.328 730.085,524.328 731,523.5C 731.433,525.664 730.933,527.664 729.5,529.5C 730.419,535.794 730.753,542.127 730.5,548.5C 729.743,544.119 728.743,539.786 727.5,535.5C 726.376,527.131 724.043,519.131 720.5,511.5 Z"/></g>
<g><path style="opacity:1" fill="#af5651" d="M 463.5,495.5 C 462.991,500.872 462.158,506.205 461,511.5C 460.171,529.338 460.338,547.005 461.5,564.5C 461.87,568.233 462.537,571.899 463.5,575.5C 462.5,575.5 461.5,575.5 460.5,575.5C 459.382,550.853 459.215,526.186 460,501.5C 461.459,499.568 462.625,497.568 463.5,495.5 Z"/></g>
<g><path style="opacity:1" fill="#6263a2" d="M 623.5,517.5 C 627.306,522.118 629.806,527.451 631,533.5C 631.827,547.673 631.661,561.673 630.5,575.5C 630.667,562.163 630.5,548.829 630,535.5C 627.869,529.416 625.702,523.416 623.5,517.5 Z"/></g>
<g><path style="opacity:1" fill="#5e64a1" d="M 183.5,507.5 C 182.917,524.827 182.584,542.161 182.5,559.5C 182.5,562.167 182.5,564.833 182.5,567.5C 181.505,555.345 181.171,543.011 181.5,530.5C 181.571,522.635 182.238,514.969 183.5,507.5 Z"/></g>
<g><path style="opacity:1" fill="#ccd7f2" d="M 292.5,503.5 C 291.945,516.827 291.611,530.16 291.5,543.5C 291.167,543.5 290.833,543.5 290.5,543.5C 290.091,529.957 290.758,516.624 292.5,503.5 Z"/></g>
<g><path style="opacity:1" fill="#bd655c" d="M 833.5,505.5 C 840.597,533.861 842.264,562.527 838.5,591.5C 838.667,574.163 838.5,556.83 838,539.5C 835.756,528.351 834.256,517.017 833.5,505.5 Z"/></g>
<g><path style="opacity:1" fill="#eeb1b0" d="M 390.5,543.5 C 390.237,554.205 390.57,564.872 391.5,575.5C 390.172,570.544 389.505,565.211 389.5,559.5C 389.501,553.989 389.834,548.656 390.5,543.5 Z"/></g>
<g><path style="opacity:1" fill="#f9fef2" d="M 183.5,503.5 C 183.5,504.833 183.5,506.167 183.5,507.5C 182.238,514.969 181.571,522.635 181.5,530.5C 180.435,537.311 179.768,544.311 179.5,551.5C 180.166,559.488 180.499,567.488 180.5,575.5C 179.5,575.5 178.5,575.5 177.5,575.5C 176.922,554.296 177.255,532.963 178.5,511.5C 179.173,506.42 180.173,501.42 181.5,496.5C 180.205,493.634 180.205,490.801 181.5,488C 180.5,487.5 179.5,487 178.5,486.5C 177.457,478.842 177.457,471.175 178.5,463.5C 179.5,463.5 180.5,463.5 181.5,463.5C 181.57,468.608 180.903,473.608 179.5,478.5C 180.213,480.776 180.713,483.109 181,485.5C 181.414,485.957 181.914,486.291 182.5,486.5C 183.495,492.128 183.829,497.794 183.5,503.5 Z"/></g>
<g><path style="opacity:1" fill="#585fa4" d="M 182.5,559.5 C 184.153,566.262 184.82,573.262 184.5,580.5C 182.946,576.433 182.28,572.1 182.5,567.5C 182.5,564.833 182.5,562.167 182.5,559.5 Z"/></g>
<g><path style="opacity:1" fill="#6067ad" d="M 290.5,543.5 C 290.833,543.5 291.167,543.5 291.5,543.5C 291.501,551.517 291.834,559.517 292.5,567.5C 291.778,567.082 291.278,566.416 291,565.5C 290.5,558.174 290.334,550.841 290.5,543.5 Z"/></g>
<g><path style="opacity:1" fill="#eddad0" d="M 727.5,535.5 C 728.743,539.786 729.743,544.119 730.5,548.5C 730.5,552.167 730.5,555.833 730.5,559.5C 730.5,562.167 730.5,564.833 730.5,567.5C 729.501,556.867 728.501,546.2 727.5,535.5 Z"/></g>
<g><path style="opacity:1" fill="#474fb1" d="M 290.5,503.5 C 289.323,516.991 289.323,530.324 290.5,543.5C 290.334,550.841 290.5,558.174 291,565.5C 291.278,566.416 291.778,567.082 292.5,567.5C 292.506,572.215 293.006,576.882 294,581.5C 295.858,584.572 297.024,587.905 297.5,591.5C 295.907,590.652 294.74,589.319 294,587.5C 293.156,583.789 292.156,580.123 291,576.5C 290,577.833 289,579.167 288,580.5C 288.466,553.438 288.299,526.438 287.5,499.5C 287.667,495.5 287.833,491.5 288,487.5C 288.309,488.766 288.809,489.933 289.5,491C 288.045,495.387 288.378,499.554 290.5,503.5 Z"/></g>
<g><path style="opacity:1" fill="#4d4ea6" d="M 559.5,543.5 C 560.75,543.577 561.583,544.244 562,545.5C 562.829,564.005 562.662,582.338 561.5,600.5C 561.5,597.5 561.5,594.5 561.5,591.5C 561.667,577.496 561.5,563.496 561,549.5C 560.495,547.482 559.995,545.482 559.5,543.5 Z"/></g>
<g><path style="opacity:1" fill="#f9feee" d="M 293.5,543.5 C 295.483,553.895 297.483,564.562 299.5,575.5C 302.604,580.345 303.938,585.678 303.5,591.5C 304.5,591.5 305.5,591.5 306.5,591.5C 306.824,594.694 305.658,595.694 303,594.5C 296.167,578.236 293.001,561.236 293.5,543.5 Z"/></g>
<g><path style="opacity:1" fill="#575c9f" d="M 292.5,567.5 C 294.193,575.593 296.527,583.593 299.5,591.5C 298.833,591.5 298.167,591.5 297.5,591.5C 297.024,587.905 295.858,584.572 294,581.5C 293.006,576.882 292.506,572.215 292.5,567.5 Z"/></g>
<g><path style="opacity:1" fill="#434fb7" d="M 565.5,543.5 C 566.5,543.5 567.5,543.5 568.5,543.5C 567.5,559.505 567.5,575.505 568.5,591.5C 569.17,575.441 570.504,559.441 572.5,543.5C 575.555,559.377 576.222,575.377 574.5,591.5C 573.671,586.198 573.171,580.864 573,575.5C 572.667,583.167 572.333,590.833 572,598.5C 570.351,601.436 568.851,604.436 567.5,607.5C 564.511,586.23 563.844,564.896 565.5,543.5 Z"/></g>
<g><path style="opacity:1" fill="#b75b4f" d="M 463.5,575.5 C 466.2,577.234 468.2,579.568 469.5,582.5C 465.871,581.583 463.871,579.25 463.5,575.5 Z"/></g>
<g><path style="opacity:1" fill="#c35549" d="M 392.5,575.5 C 394.371,579.565 396.538,583.565 399,587.5C 399.49,588.793 399.657,590.127 399.5,591.5C 395.044,587.242 392.711,581.908 392.5,575.5 Z"/></g>
<g><path style="opacity:1" fill="#bd5f5e" d="M 730.5,559.5 C 731.828,564.456 732.495,569.789 732.5,575.5C 732.41,594.116 730.243,612.45 726,630.5C 725.623,631.942 724.79,632.942 723.5,633.5C 728.806,611.836 731.139,589.836 730.5,567.5C 730.5,564.833 730.5,562.167 730.5,559.5 Z"/></g>
<g><path style="opacity:1" fill="#cd4b50" d="M 469.5,582.5 C 472.117,585.147 475.117,587.314 478.5,589C 479.252,589.671 479.586,590.504 479.5,591.5C 476.45,592.077 474.45,590.91 473.5,588C 470.124,587.693 468.79,585.86 469.5,582.5 Z"/></g>
<g><path style="opacity:1" fill="#bd585a" d="M 479.5,591.5 C 485.622,592.232 490.955,594.565 495.5,598.5C 495.5,598.833 495.5,599.167 495.5,599.5C 490.786,597.399 485.953,595.399 481,593.5C 479.97,593.164 479.47,592.497 479.5,591.5 Z"/></g>
<g><path style="opacity:1" fill="#c15651" d="M 399.5,591.5 C 401.527,591.338 403.527,591.505 405.5,592C 404.833,592.333 404.167,592.667 403.5,593C 404.227,594.399 404.727,595.899 405,597.5C 408.199,599.883 411.699,601.55 415.5,602.5C 415.5,604.167 415.5,605.833 415.5,607.5C 409.616,604.124 404.449,599.79 400,594.5C 399.517,593.552 399.351,592.552 399.5,591.5 Z"/></g>
<g><path style="opacity:1" fill="#575a95" d="M 184.5,580.5 C 185.931,580.881 186.764,581.881 187,583.5C 187.333,588.167 187.667,592.833 188,597.5C 188.26,599.618 189.26,601.284 191,602.5C 191.498,605.817 191.665,609.15 191.5,612.5C 187.387,602.362 185.054,591.695 184.5,580.5 Z"/></g>
<g><path style="opacity:1" fill="#c4534a" d="M 495.5,604.5 C 495.423,605.75 494.756,606.583 493.5,607C 488.845,607.499 484.179,607.666 479.5,607.5C 479.577,606.25 480.244,605.417 481.5,605C 486.192,605.507 490.858,605.34 495.5,604.5 Z"/></g>
<g><path style="opacity:1" fill="#c2534e" d="M 837.5,599.5 C 836.739,610.516 834.739,621.183 831.5,631.5C 832.525,621.491 833.692,611.491 835,601.5C 835.708,600.619 836.542,599.953 837.5,599.5 Z"/></g>
<g><path style="opacity:1" fill="#5e5f9f" d="M 299.5,591.5 C 304.543,602.223 311.21,611.89 319.5,620.5C 316.833,619.167 314.167,617.833 311.5,616.5C 311.762,615.022 311.429,613.689 310.5,612.5C 307.096,608.309 303.93,603.976 301,599.5C 299.921,596.937 299.421,594.271 299.5,591.5 Z"/></g>
<g><path style="opacity:1" fill="#ba5651" d="M 415.5,607.5 C 419.75,607.791 423.75,608.957 427.5,611C 430.833,611.167 434.167,611.333 437.5,611.5C 451.399,609.316 465.399,607.983 479.5,607.5C 464.058,611.797 448.058,613.797 431.5,613.5C 425.737,612.723 420.404,610.723 415.5,607.5 Z"/></g>
<g><path style="opacity:1" fill="#f4e1d8" d="M 495.5,598.5 C 497.117,599.589 497.95,601.256 498,603.5C 498.333,603.167 498.667,602.833 499,602.5C 499.866,604.896 499.366,605.563 497.5,604.5C 496.289,605.274 496.289,606.107 497.5,607C 494.825,608.861 491.825,609.861 488.5,610C 488.002,611.158 487.169,611.991 486,612.5C 482.531,613.128 479.198,612.462 476,610.5C 461.187,614.206 446.354,615.206 431.5,613.5C 448.058,613.797 464.058,611.797 479.5,607.5C 484.179,607.666 488.845,607.499 493.5,607C 494.756,606.583 495.423,605.75 495.5,604.5C 495.5,602.833 495.5,601.167 495.5,599.5C 495.5,599.167 495.5,598.833 495.5,598.5 Z"/></g>
<g><path style="opacity:1" fill="#555b97" d="M 191.5,615.5 C 192.721,616.028 193.887,616.695 195,617.5C 195.296,620.706 195.796,623.872 196.5,627C 197.098,628.301 198.098,629.135 199.5,629.5C 200.487,632.768 200.82,636.102 200.5,639.5C 196.733,631.874 193.733,623.874 191.5,615.5 Z"/></g>
<g><path style="opacity:1" fill="#585b97" d="M 561.5,591.5 C 561.5,594.5 561.5,597.5 561.5,600.5C 559.106,610.092 556.106,619.425 552.5,628.5C 548.333,628.846 546.5,631.18 547,635.5C 544.074,638.44 540.908,640.94 537.5,643C 532.471,648.708 526.471,652.875 519.5,655.5C 543.552,640.722 557.552,619.389 561.5,591.5 Z"/></g>
<g><path style="opacity:1" fill="#bb5b5b" d="M 723.5,634.5 C 723.665,638.182 723.499,641.848 723,645.5C 722.578,647.426 721.411,648.426 719.5,648.5C 720.231,643.562 721.565,638.895 723.5,634.5 Z"/></g>
<g><path style="opacity:1" fill="#56589b" d="M 200.5,639.5 C 202.864,642.523 205.031,645.856 207,649.5C 207.494,651.134 207.66,652.801 207.5,654.5C 204.593,649.786 202.26,644.786 200.5,639.5 Z"/></g>
<g><path style="opacity:1" fill="#4f519c" d="M 319.5,621.5 C 329.364,630.714 340.03,638.714 351.5,645.5C 351.5,645.833 351.5,646.167 351.5,646.5C 346.508,646.171 342.508,644.004 339.5,640C 337.043,638.438 334.376,637.438 331.5,637C 329.667,632.5 326.5,629.333 322,627.5C 321.641,624.456 320.974,624.122 320,626.5C 319.506,624.866 319.34,623.199 319.5,621.5 Z"/></g>
<g><path style="opacity:1" fill="#b85b52" d="M 831.5,633.5 C 830.518,636.763 829.851,640.097 829.5,643.5C 826.737,653.028 823.404,662.362 819.5,671.5C 819.62,666.892 820.62,662.558 822.5,658.5C 824.502,650.829 826.669,643.163 829,635.5C 829.708,634.619 830.542,633.953 831.5,633.5 Z"/></g>
<g><path style="opacity:1" fill="#505592" d="M 630.5,575.5 C 630.276,597.838 629.776,620.172 629,642.5C 628.728,647.076 627.895,651.409 626.5,655.5C 628.277,634.221 628.944,612.887 628.5,591.5C 629.167,586.167 629.833,580.833 630.5,575.5 Z"/></g>
<g><path style="opacity:1" fill="#575f92" d="M 351.5,645.5 C 358.898,648.868 366.231,652.202 373.5,655.5C 365.47,654.05 358.137,651.05 351.5,646.5C 351.5,646.167 351.5,645.833 351.5,645.5 Z"/></g>
<g><path style="opacity:1" fill="#535b98" d="M 376.5,656.5 C 384.327,658.667 391.994,661.001 399.5,663.5C 391.934,662.905 384.601,661.238 377.5,658.5C 376.702,658.043 376.369,657.376 376.5,656.5 Z"/></g>
<g><path style="opacity:1" fill="#bb605d" d="M 719.5,648.5 C 718.589,655.135 716.589,661.468 713.5,667.5C 713.043,668.298 712.376,668.631 711.5,668.5C 714.189,661.796 716.856,655.129 719.5,648.5 Z"/></g>
<g><path style="opacity:1" fill="#54579d" d="M 518.5,655.5 C 518.5,656.833 518.5,658.167 518.5,659.5C 511.004,661.622 503.337,662.955 495.5,663.5C 503.081,660.861 510.748,658.194 518.5,655.5 Z"/></g>
<g><path style="opacity:1" fill="#50579c" d="M 207.5,655.5 C 208.675,655.281 209.675,655.614 210.5,656.5C 211.698,660.199 213.865,663.199 217,665.5C 219.18,670.315 221.347,674.981 223.5,679.5C 224.822,679.33 225.989,679.663 227,680.5C 228.202,682.677 228.702,685.011 228.5,687.5C 220.519,677.554 213.519,666.888 207.5,655.5 Z"/></g>
<g><path style="opacity:1" fill="#4a4fb2" d="M 628.5,591.5 C 628.944,612.887 628.277,634.221 626.5,655.5C 625.871,662.374 623.871,668.708 620.5,674.5C 620.5,673.5 620.5,672.5 620.5,671.5C 619.5,671.5 618.5,671.5 617.5,671.5C 615.911,665.368 618.078,661.368 624,659.5C 626.059,652.534 625.892,645.7 623.5,639C 623.667,637.5 623.833,636 624,634.5C 624.333,635.167 624.667,635.833 625,636.5C 625.29,634.048 625.956,631.715 627,629.5C 627.169,616.66 627.669,603.993 628.5,591.5 Z"/></g>
<g><path style="opacity:1" fill="#5a608c" d="M 409.5,664.5 C 415.277,665.578 420.944,666.578 426.5,667.5C 421.799,667.648 417.132,667.315 412.5,666.5C 410.97,666.36 409.97,665.693 409.5,664.5 Z"/></g>
<g><path style="opacity:1" fill="#666a97" d="M 495.5,663.5 C 490.194,664.961 484.861,666.294 479.5,667.5C 474.833,667.5 470.167,667.5 465.5,667.5C 475.323,665.854 485.323,664.521 495.5,663.5 Z"/></g>
<g><path style="opacity:1" fill="#54599e" d="M 399.5,663.5 C 402.833,663.833 406.167,664.167 409.5,664.5C 409.97,665.693 410.97,666.36 412.5,666.5C 417.132,667.315 421.799,667.648 426.5,667.5C 439.5,667.5 452.5,667.5 465.5,667.5C 470.167,667.5 474.833,667.5 479.5,667.5C 476.833,668.167 474.167,668.833 471.5,669.5C 458.167,669.5 444.833,669.5 431.5,669.5C 424.345,668.671 417.011,668.171 409.5,668C 405.802,666.807 402.469,665.307 399.5,663.5 Z"/></g>
<g><path style="opacity:1" fill="#4950ae" d="M 431.5,669.5 C 444.833,669.5 458.167,669.5 471.5,669.5C 470.391,670.29 469.058,670.79 467.5,671C 462.5,671.167 457.5,671.333 452.5,671.5C 445.264,671.702 438.264,671.035 431.5,669.5 Z"/></g>
<g><path style="opacity:1" fill="#ca4f49" d="M 822.5,658.5 C 820.62,662.558 819.62,666.892 819.5,671.5C 817.223,676.387 815.223,681.387 813.5,686.5C 813.5,687.167 813.167,687.5 812.5,687.5C 812.928,682.386 814.262,677.553 816.5,673C 816.089,671.856 815.756,670.689 815.5,669.5C 818.332,666.831 819.832,663.498 820,659.5C 820.671,658.748 821.504,658.414 822.5,658.5 Z"/></g>
<g><path style="opacity:1" fill="#faebe5" d="M 829.5,643.5 C 829.354,651.45 827.188,658.784 823,665.5C 822.505,667.473 822.338,669.473 822.5,671.5C 823.5,671.5 824.5,671.5 825.5,671.5C 825.699,674.941 825.199,678.274 824,681.5C 822.731,680.095 822.231,678.429 822.5,676.5C 818.998,677.785 817.165,680.452 817,684.5C 815.887,685.305 814.721,685.972 813.5,686.5C 815.223,681.387 817.223,676.387 819.5,671.5C 823.404,662.362 826.737,653.028 829.5,643.5 Z"/></g>
<g><path style="opacity:1" fill="#b7574e" d="M 711.5,669.5 C 711.663,671.857 711.497,674.19 711,676.5C 708.597,678.305 706.93,680.638 706,683.5C 705.329,684.252 704.496,684.586 703.5,684.5C 705.916,679.333 708.582,674.333 711.5,669.5 Z"/></g>
<g><path style="opacity:1" fill="#c25c5a" d="M 812.5,687.5 C 810.359,693.115 807.692,698.449 804.5,703.5C 805.605,698.626 807.271,693.959 809.5,689.5C 810.265,688.388 811.265,687.721 812.5,687.5 Z"/></g>
<g><path style="opacity:1" fill="#4e52a8" d="M 231.5,691.5 C 233.262,691.357 234.929,691.691 236.5,692.5C 238.299,695.503 240.966,697.336 244.5,698C 246.83,699.488 247.164,701.321 245.5,703.5C 244.5,703.5 243.5,703.5 242.5,703.5C 238.805,699.474 235.138,695.474 231.5,691.5 Z"/></g>
<g><path style="opacity:1" fill="#4d5898" d="M 620.5,674.5 C 619.502,678.658 618.002,682.658 616,686.5C 613,691.167 610,695.833 607,700.5C 606.241,702.063 605.074,703.063 603.5,703.5C 603.343,702.127 603.51,700.793 604,699.5C 606.619,696.406 608.952,693.073 611,689.5C 610.546,685.812 610.713,682.145 611.5,678.5C 612.452,680.045 612.785,681.712 612.5,683.5C 613.833,683.5 615.167,683.5 616.5,683.5C 616.692,679.898 618.026,676.898 620.5,674.5 Z"/></g>
<g><path style="opacity:1" fill="#b65c55" d="M 804.5,703.5 C 803.083,706.669 801.417,709.669 799.5,712.5C 799.928,709.436 800.594,706.436 801.5,703.5C 802.5,703.5 803.5,703.5 804.5,703.5 Z"/></g>
<g><path style="opacity:1" fill="#b96659" d="M 696.5,696.5 C 694.083,700.129 692.249,704.129 691,708.5C 689.989,709.337 688.822,709.67 687.5,709.5C 689.763,704.635 692.763,700.302 696.5,696.5 Z"/></g>
<g><path style="opacity:1" fill="#b96255" d="M 687.5,709.5 C 687.649,710.552 687.483,711.552 687,712.5C 684.272,714.726 682.105,717.393 680.5,720.5C 678.167,722.5 675.833,724.5 673.5,726.5C 677.93,720.64 682.597,714.974 687.5,709.5 Z"/></g>
<g><path style="opacity:1" fill="#525a9b" d="M 603.5,703.5 C 598.513,710.82 592.513,717.153 585.5,722.5C 586.269,718.733 588.269,716.066 591.5,714.5C 593.994,711.319 596.994,707.819 600.5,704C 601.448,703.517 602.448,703.351 603.5,703.5 Z"/></g>
<g><path style="opacity:1" fill="#545c9d" d="M 242.5,703.5 C 243.5,703.5 244.5,703.5 245.5,703.5C 249.764,709.58 255.431,714.08 262.5,717C 263.167,718.333 263.833,719.667 264.5,721C 268.385,721.459 270.719,723.626 271.5,727.5C 260.643,720.979 250.976,712.979 242.5,703.5 Z"/></g>
<g><path style="opacity:1" fill="#be5b55" d="M 799.5,712.5 C 799.5,712.833 799.5,713.167 799.5,713.5C 798.291,715.941 796.624,717.941 794.5,719.5C 794.017,715.423 795.684,713.09 799.5,712.5 Z"/></g>
<g><path style="opacity:1" fill="#4551b1" d="M 591.5,714.5 C 588.269,716.066 586.269,718.733 585.5,722.5C 582.443,725.223 579.11,727.556 575.5,729.5C 570.877,730.19 566.543,731.69 562.5,734C 562.833,734.333 563.167,734.667 563.5,735C 562.207,735.49 560.873,735.657 559.5,735.5C 559.5,734.167 559.5,732.833 559.5,731.5C 564.137,731.014 568.137,729.181 571.5,726C 569.987,724.121 569.321,721.954 569.5,719.5C 571.5,719.5 573.5,719.5 575.5,719.5C 575.5,718.5 575.5,717.5 575.5,716.5C 579.172,716.183 580.838,717.849 580.5,721.5C 581.833,721.5 583.167,721.5 584.5,721.5C 584.351,716.733 586.684,714.4 591.5,714.5 Z"/></g>
<g><path style="opacity:1" fill="#f5e5dc" d="M 799.5,713.5 C 799.655,719.857 797.155,724.857 792,728.5C 790.705,731.798 788.705,734.465 786,736.5C 785.51,737.793 785.343,739.127 785.5,740.5C 784.167,740.5 782.833,740.5 781.5,740.5C 782.167,739.5 782.833,738.5 783.5,737.5C 783.5,736.833 783.5,736.167 783.5,735.5C 785.74,734.432 787.574,732.766 789,730.5C 790.655,726.697 792.489,723.03 794.5,719.5C 796.624,717.941 798.291,715.941 799.5,713.5 Z"/></g>
<g><path style="opacity:1" fill="#596098" d="M 271.5,727.5 C 272.873,727.343 274.207,727.51 275.5,728C 280.764,731.637 286.43,734.137 292.5,735.5C 295.012,737.667 297.345,740 299.5,742.5C 289.659,738.296 280.326,733.296 271.5,727.5 Z"/></g>
<g><path style="opacity:1" fill="#cb5045" d="M 794.5,719.5 C 792.489,723.03 790.655,726.697 789,730.5C 787.574,732.766 785.74,734.432 783.5,735.5C 783.335,731.818 783.501,728.152 784,724.5C 784.928,727.035 786.762,728.035 789.5,727.5C 789.343,726.127 789.51,724.793 790,723.5C 791.468,722.011 792.968,720.677 794.5,719.5 Z"/></g>
<g><path style="opacity:1" fill="#515998" d="M 575.5,729.5 C 560.73,738.536 544.73,744.536 527.5,747.5C 535.219,743.704 543.552,740.871 552.5,739C 554.757,737.55 557.09,736.383 559.5,735.5C 560.873,735.657 562.207,735.49 563.5,735C 563.167,734.667 562.833,734.333 562.5,734C 566.543,731.69 570.877,730.19 575.5,729.5 Z"/></g>
<g><path style="opacity:1" fill="#b0605b" d="M 671.5,727.5 C 670.745,730.512 669.412,733.178 667.5,735.5C 666.5,735.5 665.5,735.5 664.5,735.5C 666.094,732.236 668.427,729.569 671.5,727.5 Z"/></g>
<g><path style="opacity:1" fill="#d34944" d="M 680.5,720.5 C 679.627,722.886 678.127,724.886 676,726.5C 675.578,728.355 675.078,730.189 674.5,732C 674.759,733.261 675.426,734.261 676.5,735C 674.866,735.494 673.199,735.66 671.5,735.5C 671.5,736.5 671.5,737.5 671.5,738.5C 670.5,738.5 669.5,738.5 668.5,738.5C 668.5,739.833 668.5,741.167 668.5,742.5C 664.143,741.796 660.643,743.13 658,746.5C 656.172,745.248 654.339,745.248 652.5,746.5C 652.5,746.167 652.5,745.833 652.5,745.5C 656.202,741.797 660.202,738.463 664.5,735.5C 665.5,735.5 666.5,735.5 667.5,735.5C 669.412,733.178 670.745,730.512 671.5,727.5C 672.167,727.167 672.833,726.833 673.5,726.5C 675.833,724.5 678.167,722.5 680.5,720.5 Z"/></g>
<g><path style="opacity:1" fill="#4d52a6" d="M 292.5,735.5 C 296.121,736.876 299.621,738.542 303,740.5C 304.081,738.233 305.581,738.066 307.5,740C 306.572,740.388 305.905,741.055 305.5,742C 307.916,743.408 309.916,745.242 311.5,747.5C 307.099,746.594 303.099,744.928 299.5,742.5C 297.345,740 295.012,737.667 292.5,735.5 Z"/></g>
<g><path style="opacity:1" fill="#525a94" d="M 527.5,747.5 C 522.429,749.435 517.095,750.768 511.5,751.5C 513.025,749.964 515.025,748.964 517.5,748.5C 520.768,747.513 524.102,747.18 527.5,747.5 Z"/></g>
<g><path style="opacity:1" fill="#515a9e" d="M 311.5,747.5 C 316.57,747.925 321.57,748.759 326.5,750C 327.71,751.039 328.71,752.206 329.5,753.5C 323.215,752.072 317.215,750.072 311.5,747.5 Z"/></g>
<g><path style="opacity:1" fill="#cc4f4c" d="M 783.5,737.5 C 782.833,738.5 782.167,739.5 781.5,740.5C 777.529,746.798 772.862,752.465 767.5,757.5C 765.97,758.211 764.637,759.211 763.5,760.5C 763.525,757.821 764.858,756.488 767.5,756.5C 769.906,753.339 771.572,749.672 772.5,745.5C 773.376,744.749 774.376,744.249 775.5,744C 775.167,743.667 774.833,743.333 774.5,743C 775.793,742.51 777.127,742.343 778.5,742.5C 778.33,741.178 778.663,740.011 779.5,739C 778.027,738.29 777.36,737.124 777.5,735.5C 779.718,735.614 781.718,736.28 783.5,737.5 Z"/></g>
<g><path style="opacity:1" fill="#4b53aa" d="M 511.5,751.5 C 503.063,753.798 494.396,755.464 485.5,756.5C 481.167,756.5 476.833,756.5 472.5,756.5C 476.312,755.676 480.312,755.176 484.5,755C 484.833,754.667 485.167,754.333 485.5,754C 483.423,753.808 481.423,753.308 479.5,752.5C 490.174,752.169 500.84,751.836 511.5,751.5 Z"/></g>
<g><path style="opacity:1" fill="#c15953" d="M 652.5,745.5 C 652.5,745.833 652.5,746.167 652.5,746.5C 648.966,749.2 645.966,752.366 643.5,756C 641.122,756.511 638.788,757.178 636.5,758C 633.538,762.78 629.205,765.28 623.5,765.5C 624.167,764.833 624.833,764.167 625.5,763.5C 634.518,757.474 643.518,751.474 652.5,745.5 Z"/></g>
<g><path style="opacity:1" fill="#54579e" d="M 330.5,753.5 C 342.958,755.53 355.291,757.53 367.5,759.5C 364.167,759.5 360.833,759.5 357.5,759.5C 348.106,758.757 339.106,756.757 330.5,753.5 Z"/></g>
<g><path style="opacity:1" fill="#545e8a" d="M 357.5,759.5 C 360.833,759.5 364.167,759.5 367.5,759.5C 368.568,760.434 369.901,760.768 371.5,760.5C 375.5,761.167 379.5,761.833 383.5,762.5C 374.548,762.789 365.881,761.789 357.5,759.5 Z"/></g>
<g><path style="opacity:1" fill="#4a51a5" d="M 371.5,760.5 C 391.494,761.114 411.494,761.447 431.5,761.5C 415.675,762.496 399.675,762.83 383.5,762.5C 379.5,761.833 375.5,761.167 371.5,760.5 Z"/></g>
<g><path style="opacity:1" fill="#5e639d" d="M 472.5,756.5 C 476.833,756.5 481.167,756.5 485.5,756.5C 466.185,760.614 446.518,763.114 426.5,764C 413.833,764.667 401.167,764.667 388.5,764C 386.618,763.802 384.952,763.302 383.5,762.5C 399.675,762.83 415.675,762.496 431.5,761.5C 445.436,761.603 459.103,759.937 472.5,756.5 Z"/></g>
<g><path style="opacity:1" fill="#debec9" d="M 625.5,763.5 C 624.833,764.167 624.167,764.833 623.5,765.5C 622.817,767.176 621.483,767.843 619.5,767.5C 619.5,766.167 619.5,764.833 619.5,763.5C 621.611,762.62 623.611,762.62 625.5,763.5 Z"/></g>
<g><path style="opacity:1" fill="#b66055" d="M 767.5,757.5 C 763.274,764.398 757.941,770.398 751.5,775.5C 751.639,772.412 752.639,769.745 754.5,767.5C 757.753,765.591 760.753,763.257 763.5,760.5C 764.637,759.211 765.97,758.211 767.5,757.5 Z"/></g>
<g><path style="opacity:1" fill="#93858a" d="M 273.5,767.5 C 272.167,767.5 271.5,768.167 271.5,769.5C 263.424,762.527 264.09,761.86 273.5,767.5 Z"/></g>
<g><path style="opacity:1" fill="#b55d5e" d="M 273.5,767.5 C 278.528,769.676 283.194,772.343 287.5,775.5C 284.039,776.111 281.372,774.944 279.5,772C 278.207,771.51 276.873,771.343 275.5,771.5C 275.5,772.5 275.5,773.5 275.5,774.5C 274.197,772.858 272.864,771.191 271.5,769.5C 271.5,768.167 272.167,767.5 273.5,767.5 Z"/></g>
<g><path style="opacity:1" fill="#b35e55" d="M 619.5,767.5 C 616.645,770.765 612.979,772.765 608.5,773.5C 611.999,771.25 615.665,769.25 619.5,767.5 Z"/></g>
<g><path style="opacity:1" fill="#c8534a" d="M 287.5,775.5 C 289.027,775.427 290.027,776.094 290.5,777.5C 287.873,776.908 285.206,776.575 282.5,776.5C 282.33,777.822 282.663,778.989 283.5,780C 286.839,781.5 290.173,783 293.5,784.5C 293.069,785.293 292.735,786.127 292.5,787C 293.222,789.677 294.222,792.177 295.5,794.5C 288.446,788.113 281.779,781.446 275.5,774.5C 275.5,773.5 275.5,772.5 275.5,771.5C 276.873,771.343 278.207,771.51 279.5,772C 281.372,774.944 284.039,776.111 287.5,775.5 Z"/></g>
<g><path style="opacity:1" fill="#c75152" d="M 291.5,777.5 C 294.024,778.927 296.69,780.094 299.5,781C 300.381,781.708 301.047,782.542 301.5,783.5C 295.88,784.937 292.546,782.937 291.5,777.5 Z"/></g>
<g><path style="opacity:1" fill="#b45a4c" d="M 751.5,775.5 C 743.714,784.626 735.047,792.626 725.5,799.5C 725.33,798.178 725.663,797.011 726.5,796C 728.792,794.71 730.792,793.043 732.5,791C 733.448,790.517 734.448,790.351 735.5,790.5C 735.5,789.5 735.5,788.5 735.5,787.5C 736.675,787.719 737.675,787.386 738.5,786.5C 740.027,784.061 742.027,782.061 744.5,780.5C 744.878,776.15 747.211,774.483 751.5,775.5 Z"/></g>
<g><path style="opacity:1" fill="#95625e" d="M 591.5,781.5 C 590.082,783.308 588.082,783.975 585.5,783.5C 587.302,782.542 589.302,781.875 591.5,781.5 Z"/></g>
<g><path style="opacity:1" fill="#b75f5f" d="M 585.5,783.5 C 583.109,786.917 579.775,788.25 575.5,787.5C 578.625,785.874 581.958,784.54 585.5,783.5 Z"/></g>
<g><path style="opacity:1" fill="#b26253" d="M 575.5,787.5 C 570.932,790.902 565.599,792.569 559.5,792.5C 564.51,790.089 569.843,788.422 575.5,787.5 Z"/></g>
<g><path style="opacity:1" fill="#f7e9db" d="M 304.5,783.5 C 308.419,784.393 312.252,785.726 316,787.5C 318.252,786.038 319.752,786.705 320.5,789.5C 323.228,790.145 325.895,790.979 328.5,792C 329.252,792.671 329.586,793.504 329.5,794.5C 328.127,794.657 326.793,794.49 325.5,794C 318.352,790.576 311.352,787.076 304.5,783.5 Z"/></g>
<g><path style="opacity:1" fill="#c6564c" d="M 303.5,783.5 C 303.833,783.5 304.167,783.5 304.5,783.5C 311.352,787.076 318.352,790.576 325.5,794C 326.793,794.49 328.127,794.657 329.5,794.5C 330.833,795.5 332.167,796.5 333.5,797.5C 330.428,797.817 327.428,797.484 324.5,796.5C 322.735,794.947 320.902,794.614 319,795.5C 317.513,794.747 317.346,793.914 318.5,793C 314.07,790.247 309.403,787.914 304.5,786C 303.748,785.329 303.414,784.496 303.5,783.5 Z"/></g>
<g><path style="opacity:1" fill="#b25a56" d="M 559.5,792.5 C 556.777,794.188 553.777,795.688 550.5,797C 545.873,798.157 541.207,798.99 536.5,799.5C 535.167,799.5 533.833,799.5 532.5,799.5C 541.363,796.997 550.363,794.663 559.5,792.5 Z"/></g>
<g><path style="opacity:1" fill="#b75952" d="M 335.5,798.5 C 339.484,799.488 343.484,800.488 347.5,801.5C 348.833,802.167 350.167,802.833 351.5,803.5C 345.352,803.781 340.019,802.114 335.5,798.5 Z"/></g>
<g><path style="opacity:1" fill="#f5dbd1" d="M 347.5,801.5 C 356.511,802.835 365.511,804.335 374.5,806C 376.758,806.876 378.758,808.043 380.5,809.5C 376.167,808.833 371.833,808.167 367.5,807.5C 362.276,806.194 356.943,804.861 351.5,803.5C 350.167,802.833 348.833,802.167 347.5,801.5 Z"/></g>
<g><path style="opacity:1" fill="#b46362" d="M 527.5,800.5 C 526.848,801.725 525.681,802.392 524,802.5C 519.863,803.237 515.697,803.571 511.5,803.5C 516.572,801.754 521.905,800.754 527.5,800.5 Z"/></g>
<g><path style="opacity:1" fill="#bc5651" d="M 725.5,799.5 C 719.074,805.594 712.074,810.927 704.5,815.5C 704.809,812.654 706.475,811.154 709.5,811C 713.974,805.853 719.307,802.02 725.5,799.5 Z"/></g>
<g><path style="opacity:1" fill="#c0564e" d="M 295.5,794.5 C 298.167,794.833 300.833,795.167 303.5,795.5C 303.5,796.5 303.5,797.5 303.5,798.5C 304.552,798.351 305.552,798.517 306.5,799C 306.167,799.333 305.833,799.667 305.5,800C 306.701,800.903 307.535,802.069 308,803.5C 310.693,803.953 312.527,805.453 313.5,808C 315.848,808.346 317.681,809.513 319,811.5C 319.333,810.833 319.667,810.167 320,809.5C 321.542,813.397 323.709,816.731 326.5,819.5C 318.657,814.678 311.324,809.011 304.5,802.5C 303.614,801.675 303.281,800.675 303.5,799.5C 300.324,798.66 297.658,796.993 295.5,794.5 Z"/></g>
<g><path style="opacity:1" fill="#b76762" d="M 511.5,803.5 C 508.471,805.075 505.138,806.241 501.5,807C 497.514,807.499 493.514,807.666 489.5,807.5C 496.592,805.601 503.925,804.267 511.5,803.5 Z"/></g>
<g><path style="opacity:1" fill="#d44641" d="M 532.5,799.5 C 533.833,799.5 535.167,799.5 536.5,799.5C 535.71,800.794 534.71,801.961 533.5,803C 526.565,803.697 519.899,805.364 513.5,808C 516.063,808.763 516.063,809.263 513.5,809.5C 511.913,808.638 510.246,807.971 508.5,807.5C 498.987,809.949 489.321,810.949 479.5,810.5C 482.592,809.816 485.592,808.816 488.5,807.5C 488.833,807.5 489.167,807.5 489.5,807.5C 493.514,807.666 497.514,807.499 501.5,807C 505.138,806.241 508.471,805.075 511.5,803.5C 515.697,803.571 519.863,803.237 524,802.5C 525.681,802.392 526.848,801.725 527.5,800.5C 528.919,799.549 530.585,799.216 532.5,799.5 Z"/></g>
<g><path style="opacity:1" fill="#ba574a" d="M 351.5,803.5 C 356.943,804.861 362.276,806.194 367.5,807.5C 363.123,807.423 358.79,806.923 354.5,806C 352.881,805.764 351.881,804.931 351.5,803.5 Z"/></g>
<g><path style="opacity:1" fill="#b35c53" d="M 367.5,807.5 C 371.833,808.167 376.167,808.833 380.5,809.5C 416.573,813.765 452.573,813.098 488.5,807.5C 485.592,808.816 482.592,809.816 479.5,810.5C 474.167,811.167 468.833,811.833 463.5,812.5C 442.176,813.278 420.843,813.611 399.5,813.5C 391.553,812.349 383.553,811.516 375.5,811C 372.399,810.362 369.732,809.195 367.5,807.5 Z"/></g>
<g><path style="opacity:1" fill="#c64a44" d="M 463.5,812.5 C 451.374,814.045 439.04,814.712 426.5,814.5C 417.327,814.5 408.327,814.166 399.5,813.5C 420.843,813.611 442.176,813.278 463.5,812.5 Z"/></g>
<g><path style="opacity:1" fill="#cb594c" d="M 335.5,826.5 C 332.208,824.542 329.208,822.209 326.5,819.5C 327.817,819.821 329.151,820.154 330.5,820.5C 332.056,819.453 333.723,818.786 335.5,818.5C 335.374,820.2 334.707,821.7 333.5,823C 333.978,824.303 334.645,825.469 335.5,826.5 Z"/></g>
<g><path style="opacity:1" fill="#c05d4f" d="M 335.5,826.5 C 341.864,826.1 346.197,828.767 348.5,834.5C 343.959,832.068 339.625,829.401 335.5,826.5 Z"/></g>
<g><path style="opacity:1" fill="#ba584f" d="M 702.5,817.5 C 692.984,824.984 682.651,831.317 671.5,836.5C 671.5,835.5 671.5,834.5 671.5,833.5C 674.004,832.361 676.67,831.694 679.5,831.5C 679.297,829.61 679.963,828.11 681.5,827C 683.577,826.808 685.577,826.308 687.5,825.5C 692.112,822.029 697.112,819.362 702.5,817.5 Z"/></g>
<g><path style="opacity:1" fill="#bd6260" d="M 348.5,834.5 C 350.96,834.699 353.293,835.365 355.5,836.5C 357.83,838.667 360.497,840.334 363.5,841.5C 364.425,842.357 365.092,843.357 365.5,844.5C 359.377,841.907 353.71,838.574 348.5,834.5 Z"/></g>
<g><path style="opacity:1" fill="#bc5e55" d="M 670.5,837.5 C 667.669,839.417 664.669,841.083 661.5,842.5C 663.386,839.052 666.386,837.386 670.5,837.5 Z"/></g>
<g><path style="opacity:1" fill="#b56058" d="M 365.5,844.5 C 368.346,844.03 370.679,844.863 372.5,847C 382.209,850.119 391.209,854.286 399.5,859.5C 387.608,855.55 376.275,850.55 365.5,844.5 Z"/></g>
<g><path style="opacity:1" fill="#c5524f" d="M 661.5,842.5 C 661.047,843.458 660.381,844.292 659.5,845C 651.298,848.273 643.298,851.773 635.5,855.5C 628.5,858.167 621.5,860.833 614.5,863.5C 614.511,861.983 615.177,860.816 616.5,860C 621.521,858.484 626.521,856.984 631.5,855.5C 631.5,854.5 631.5,853.5 631.5,852.5C 634.728,852.701 637.895,852.367 641,851.5C 643.225,849.758 645.725,848.591 648.5,848C 649.293,846.915 649.96,845.748 650.5,844.5C 654.162,843.687 657.828,843.021 661.5,842.5 Z"/></g>
<g><path style="opacity:1" fill="#be6362" d="M 399.5,859.5 C 403.884,858.576 407.218,859.909 409.5,863.5C 405.873,862.679 402.54,861.346 399.5,859.5 Z"/></g>
<g><path style="opacity:1" fill="#f8e0d8" d="M 635.5,855.5 C 633.027,857.347 630.527,859.347 628,861.5C 623.273,862.376 618.773,863.876 614.5,866C 614.833,866.333 615.167,866.667 615.5,867C 611.571,868.638 607.571,868.805 603.5,867.5C 606.95,866.47 610.283,865.137 613.5,863.5C 613.833,863.5 614.167,863.5 614.5,863.5C 621.5,860.833 628.5,858.167 635.5,855.5 Z"/></g>
<g><path style="opacity:1" fill="#bb5b55" d="M 411.5,863.5 C 420.433,866.281 429.6,868.281 439,869.5C 440.376,869.684 441.209,870.351 441.5,871.5C 434.501,870.167 427.501,868.834 420.5,867.5C 417.433,866.317 414.433,864.983 411.5,863.5 Z"/></g>
<g><path style="opacity:1" fill="#bd5952" d="M 613.5,863.5 C 610.283,865.137 606.95,866.47 603.5,867.5C 603.167,867.5 602.833,867.5 602.5,867.5C 583.097,872.217 563.43,875.217 543.5,876.5C 543.5,875.833 543.5,875.167 543.5,874.5C 548.844,874.666 554.177,874.499 559.5,874C 577.286,870.112 595.286,866.612 613.5,863.5 Z"/></g>
<g><path style="opacity:1" fill="#f6ded7" d="M 602.5,867.5 C 602.611,868.117 602.944,868.617 603.5,869C 598.351,870.916 593.017,871.916 587.5,872C 586.672,872.915 585.672,873.581 584.5,874C 573.357,874.934 562.357,876.6 551.5,879C 530.663,879.829 509.996,879.663 489.5,878.5C 505.503,878.667 521.503,878.5 537.5,878C 539.708,877.809 541.708,877.309 543.5,876.5C 563.43,875.217 583.097,872.217 602.5,867.5 Z"/></g>
<g><path style="opacity:1" fill="#fbebe8" d="M 420.5,867.5 C 427.501,868.834 434.501,870.167 441.5,871.5C 448.524,873.842 455.858,875.175 463.5,875.5C 466.167,876.167 468.833,876.833 471.5,877.5C 466.489,877.666 461.489,877.499 456.5,877C 451.338,874.871 446.005,874.204 440.5,875C 439.167,876 439.167,877 440.5,878C 437.406,878.652 434.406,878.318 431.5,877C 438.078,876.115 438.078,874.948 431.5,873.5C 432.729,872.719 434.062,872.219 435.5,872C 431.227,870.97 426.894,870.303 422.5,870C 421.619,869.292 420.953,868.458 420.5,867.5 Z"/></g>
<g><path style="opacity:1" fill="#b75c51" d="M 441.5,871.5 C 449.163,871.076 456.496,872.076 463.5,874.5C 463.5,874.833 463.5,875.167 463.5,875.5C 455.858,875.175 448.524,873.842 441.5,871.5 Z"/></g>
<g><path style="opacity:1" fill="#db4344" d="M 463.5,875.5 C 463.5,875.167 463.5,874.833 463.5,874.5C 490.167,874.5 516.833,874.5 543.5,874.5C 543.5,875.167 543.5,875.833 543.5,876.5C 531.837,876.886 520.171,877.219 508.5,877.5C 493.488,877.032 478.488,876.365 463.5,875.5 Z"/></g>
<g><path style="opacity:1" fill="#ad5d59" d="M 463.5,875.5 C 478.488,876.365 493.488,877.032 508.5,877.5C 520.171,877.219 531.837,876.886 543.5,876.5C 541.708,877.309 539.708,877.809 537.5,878C 521.503,878.5 505.503,878.667 489.5,878.5C 483.491,878.299 477.491,877.966 471.5,877.5C 468.833,876.833 466.167,876.167 463.5,875.5 Z"/></g>
</svg>
